<?xml version="1.0" encoding="utf-8"?>
<!-- Generator: Adobe Illustrator 22.1.0, SVG Export Plug-In . SVG Version: 6.00 Build 0)  -->
<svg version="1.1" id="Calque_1" xmlns="http://www.w3.org/2000/svg" xmlns:xlink="http://www.w3.org/1999/xlink" x="0px" y="0px"
	 viewBox="0 0 24 24" style="enable-background:new 0 0 24 24;" xml:space="preserve">
<path d="M3.2,5.4v13.3h14l3.7-4.1V5.4H3.2z M4.7,6.9h14.6v7l0,0h-2.8v3.2H4.7L4.7,6.9L4.7,6.9z"/>
<path d="M15.8,11.9c-0.1,0-0.1,0-0.2-0.1c-0.1,0-0.2-0.1-0.3-0.1c0,0-0.1,0-0.1-0.1v0h0l0,0c0,0-0.1-0.1-0.1-0.1c0,0,0,0,0,0
	c-0.1,0-0.1,0-0.1-0.1c0-0.2,0-0.3,0-0.4c0-0.1,0-0.2,0-0.3c0,0,0,0,0,0c0,0-0.1-0.1-0.1-0.1c0,0,0-0.1-0.1-0.1c0-0.1,0-0.1-0.1-0.1
	l0,0c0-0.1-0.1-0.1-0.1-0.2c0,0,0-0.1,0-0.1c0,0,0-0.1,0-0.1c0,0,0-0.1,0-0.1c-0.1-0.1-0.1-0.1-0.1-0.2c0,0,0,0,0-0.1l0,0v0.6
	l-0.2,0c0,0-0.1,0-0.2,0c0,0-0.1,0-0.1,0c-0.1,0-0.1,0.1-0.2,0.1c-0.1,0.1-0.1,0.1-0.2,0.1c0,0-0.1,0-0.1,0h-0.1
	c-0.1,0-0.2,0-0.2-0.1c0,0,0,0-0.1,0c0,0,0,0.1,0,0.1c0,0.1,0,0.2,0,0.2c0,0,0,0-0.1,0h-0.1c0,0-0.1,0-0.1,0c0,0-0.1,0-0.1-0.1
	c0-0.1-0.1-0.2-0.1-0.2c-0.2,0-0.1,0-0.1,0h0c-0.1,0-0.2,0-0.3,0.1c-0.1,0-0.1,0.1-0.1,0.1c0,0.1,0,0.1,0,0.2c0,0,0,0-0.1,0.1
	c0,0,0,0-0.1,0c0,0.1-0.1,0.1-0.2,0.2c0,0,0,0,0,0c0,0.1,0,0.1,0,0.2c0,0,0,0-0.1,0c0,0,0,0,0-0.1c0-0.2,0-0.4,0-0.6
	c0-0.1,0-0.1-0.1-0.2c0,0-0.1-0.1-0.1-0.1c0,0-0.1,0-0.1-0.1c0-0.1,0-0.3,0-0.4c0,0,0-0.1-0.1-0.1c0,0,0-0.1-0.1-0.1
	c0-0.1,0-0.1-0.1-0.2c0,0-0.1-0.1-0.2-0.1c0,0-0.1,0-0.1,0c-0.1,0.1-0.2,0.1-0.3,0.2c0,0,0,0,0,0c0,0-0.1,0-0.1,0
	c-0.1,0-0.2,0-0.2,0l-0.1,0c0,0-0.1,0-0.1,0H9.9c0,0-0.1,0-0.1,0c0,0,0,0.1-0.1,0.1c0,0.1,0,0.2,0,0.2c0,0,0,0.1-0.1,0.1
	c-0.1,0,0,0,0,0.1c0,0,0,0.1-0.1,0.1c0,0,0,0,0,0.1c0,0.1,0,0.1,0,0.2c0,0,0,0,0,0c-0.1,0,0,0,0-0.1c0,0,0-0.1,0-0.1c0,0,0,0,0-0.1
	c0,0,0,0-0.1-0.1c-0.1,0-0.1,0-0.1,0c0,0,0,0,0,0c0,0.1,0,0.1,0,0.2c0,0.2,0,0.3-0.1,0.5c0,0-0.1,0.1-0.1,0.1c0,0,0,0-0.1,0
	c-0.2,0-0.2,0.1-0.2,0.1c0,0,0,0.1,0,0.1c0,0,0,0,0,0.1c0,0-0.1,0-0.1,0c-0.2,0-0.2,0-0.2,0l0,0v1c0,0,0,0,0,0c0,0,0.1,0,0.1,0
	c0.3,0,0.3,0,0.3,0.1c0,0.1,0,0.1,0,0.2c0,0,0,0,0.1,0.1c0.3,0.1,0.3,0.1,0.3,0.2c0,0.2,0,0.4,0.1,0.6c0,0,0,0.1,0,0.1l0,0h0.1
	c0,0,0,0,0-0.1c0-0.1,0-0.1,0-0.2c0,0,0,0,0.1,0c0,0,0,0,0,0c0,0.1,0,0.1,0,0.2c0,0.1,0,0.1,0.1,0.1c0.1,0,0,0,0,0.1
	c0,0,0,0,0.1,0.1s0,0,0,0c0,0.1,0,0.2,0,0.3c0,0,0,0.1,0.1,0.1c0,0,0.1,0,0.1,0h0.1c0,0,0.1,0,0.1,0c0,0,0.1,0,0.1,0h0.2
	c0.1,0,0.1,0,0.2,0c0,0,0.1,0,0.1,0c0,0,0.1,0.1,0.1,0.1c0.1,0,0.1,0.1,0.2,0.1h0.1c0,0,0,0,0.1,0c0,0,0.1,0,0.1-0.1
	c0-0.1,0-0.1,0.1-0.2c0,0,0-0.1,0-0.1c0,0,0.1-0.1,0.1-0.1c0-0.1,0-0.2,0-0.4c0-0.1,0.1-0.1,0.1-0.1c0,0,0.1,0,0.1-0.1
	c0-0.2,0-0.3,0.1-0.5c0-0.1,0-0.2,0-0.2c0,0,0,0,0-0.1c0.1,0,0.1,0,0.1,0c0,0.1,0,0.1,0,0.2c0,0,0,0.1,0.1,0.1
	c0.1,0,0.1,0.1,0.1,0.1c0,0,0,0,0.1,0c0.2,0,0.1,0,0.1,0.1c0,0.1,0,0.2,0,0.2c0,0,0.1,0.1,0.1,0.1c0,0,0,0,0.1,0
	c0,0,0.1,0.1,0.1,0.1c0,0,0.1,0,0.1,0c0,0,0.1,0,0.1,0c0-0.1,0.1-0.2,0.1-0.2c0,0,0,0,0.1-0.1h0.1c0,0,0.1,0,0.1,0c0,0,0,0,0,0
	c0,0,0,0,0,0l0,0.3c0,0,0,0,0,0c0.1,0,0.1,0,0.1,0c0.1,0,0.2-0.1,0.2-0.1h0.2c0,0,0.1,0,0.1,0c0.1,0.1,0.1,0.1,0.2,0.2
	c0.1,0,0.1,0.1,0.2,0.1l0.4-0.1v0.5l0,0c0,0,0,0,0-0.1c0-0.1,0-0.2,0.1-0.2c0,0,0-0.1,0-0.1c0,0,0-0.1,0.1-0.1c0,0,0,0,0,0
	c0,0,0-0.1,0-0.1c0,0,0,0,0,0c0,0,0-0.1,0-0.1c0,0,0-0.1,0-0.1c0,0,0-0.1,0.1-0.1c0.1-0.1,0.2-0.2,0.2-0.2c0,0,0,0,0-0.1
	c0-0.2,0-0.4,0-0.6c0,0,0-0.1,0-0.1s0,0,0.1-0.1c0,0,0.1-0.1,0.1-0.1c0,0,0,0,0,0h0v-0.1c0,0,0.1-0.1,0.2-0.1c0,0,0,0,0.1,0
	c0,0,0.1,0,0.1-0.1c0,0,0,0,0.1,0c0.1,0,0.7-0.2,0.7-0.2C16.1,12,15.9,11.9,15.8,11.9z"/>
</svg>
