<?xml version="1.0" encoding="utf-8"?>
<!-- Generator: Adobe Illustrator 21.1.0, SVG Export Plug-In . SVG Version: 6.00 Build 0)  -->
<svg version="1.1" id="Calque_1" xmlns="http://www.w3.org/2000/svg" xmlns:xlink="http://www.w3.org/1999/xlink" x="0px" y="0px"
	 viewBox="0 0 24 24" style="enable-background:new 0 0 24 24;" xml:space="preserve">
<path d="M19,19L5,19V5h14V19z M19,3H5C3.9,3,3,3.9,3,5v14c0,1.1,0.9,2,2,2h14c1.1,0,2-0.9,2-2V5C21,3.9,20.1,3,19,3z M16.5,16.2
	c0-1.5-3-2.3-4.5-2.3s-4.5,0.8-4.5,2.3V17h9V16.2z M12,12.2c1.2,0,2.3-1,2.3-2.3c0-1.2-1-2.2-2.3-2.2s-2.3,1-2.3,2.2
	C9.7,11.2,10.8,12.2,12,12.2z"/>
</svg>
