<?xml version="1.0" encoding="utf-8"?>
<!-- Generator: Adobe Illustrator 22.0.0, SVG Export Plug-In . SVG Version: 6.00 Build 0)  -->
<svg version="1.1" id="Calque_1" xmlns="http://www.w3.org/2000/svg" xmlns:xlink="http://www.w3.org/1999/xlink" x="0px" y="0px"
	 viewBox="0 0 24 24" style="enable-background:new 0 0 24 24;" xml:space="preserve">
<path d="M20,6c1.1,0,2,0.9,2,2v12c0,1.1-0.9,2-2,2H4c-1.1,0-2-0.9-2-2V8c0-0.8,0.5-1.6,1.3-1.9L15.7,1l0.8,1.8L8.8,6H20z M20,8H4v4
	h12v-2h2v2h2V8z M6.1,15C4.9,15,4,15.9,4,17s0.9,2.1,2.1,2.1c1.1,0,2.1-0.9,2.1-2.1S7.2,15,6.1,15z"/>
</svg>
