<?xml version="1.0" encoding="utf-8"?>
<!-- Generator: Adobe Illustrator 22.0.0, SVG Export Plug-In . SVG Version: 6.00 Build 0)  -->
<svg version="1.1" id="Calque_1" xmlns="http://www.w3.org/2000/svg" xmlns:xlink="http://www.w3.org/1999/xlink" x="0px" y="0px"
	 viewBox="0 0 24 24" style="enable-background:new 0 0 24 24;" xml:space="preserve">
<style type="text/css">
	.st0{clip-path:url(#SVGID_2_);}
</style>
<g>
	<g>
		<g>
			<defs>
				<rect id="SVGID_1_" y="0" width="24" height="24"/>
			</defs>
			<clipPath id="SVGID_2_">
				<use xlink:href="#SVGID_1_"  style="overflow:visible;"/>
			</clipPath>
			<g class="st0">
				<path d="M21,10.1h-6.8L17,7.3c-2.7-2.7-7.1-2.8-9.9-0.1c-2.7,2.7-2.7,7.1,0,9.8s7.1,2.7,9.9,0c1.4-1.3,2-2.9,2-4.9h2
					c0,2-0.9,4.6-2.6,6.3c-3.5,3.5-9.2,3.5-12.7,0s-3.5-9.1,0-12.6s9.1-3.5,12.7,0L21,3V10.1z M12.5,8v4.2l3.5,2.1l-0.7,1.2L11,13V8
					H12.5z"/>
			</g>
		</g>
	</g>
</g>
</svg>
