<?xml version="1.0" encoding="utf-8"?>
<!-- Generator: Adobe Illustrator 22.1.0, SVG Export Plug-In . SVG Version: 6.00 Build 0)  -->
<svg version="1.1" id="Calque_1" xmlns="http://www.w3.org/2000/svg" xmlns:xlink="http://www.w3.org/1999/xlink" x="0px" y="0px"
	 viewBox="0 0 317 276" style="enable-background:new 0 0 317 276;" xml:space="preserve">
<style type="text/css">
	.st0{fill:url(#SVGID_1_);}
	.st1{fill:#EB0066;}
</style>
<g>
	<linearGradient id="SVGID_1_" gradientUnits="userSpaceOnUse" x1="219.0886" y1="132.8787" x2="106.0886" y2="243.3787">
		<stop  offset="0" style="stop-color:#7C3EB9"/>
		<stop  offset="0.3363" style="stop-color:#A2299C"/>
		<stop  offset="1" style="stop-color:#EB0066"/>
	</linearGradient>
	<path class="st0" d="M93.8,185.4c-3.1-1.8-4.2-5.7-2.4-8.8l9.7-16.8c0.7-1.3,1.8-2.2,3.1-2.7l50.7-28.5c1-0.7,2.3-1.1,3.7-1.1
		s2.6,0.4,3.7,1.1l51.2,28.8c1.2,0.7,2.2,1.7,2.8,3l9.4,16.3c1.8,3.1,0.7,7.1-2.4,8.8l-6.4,3.7v32.1c0,2.5-1.4,4.6-3.4,5.7
		l-51.2,28.8c-1,0.7-2.3,1.1-3.7,1.1s-2.6-0.4-3.7-1.1L103.7,227c-2-1.1-3.4-3.2-3.4-5.7v-35.9C98.3,186.5,95.9,186.6,93.8,185.4z
		 M158.5,141.3L158.5,141.3l0,43.4l0,0l38.6-21.7L158.5,141.3z M113.2,217.5l38.8,21.8v-43.4l-38.8-21.8V217.5z M203.8,217.5v-20.9
		l-32.5,18.7c-2,1.2-4.5,1.1-6.4,0.1v23.9L203.8,217.5z M170.5,200.9l40.6-23.5l-3.8-6.5l-40.6,23.5L170.5,200.9z"/>
	<g>
		<path class="st1" d="M66,19.1v93.7h158.8L251,83.7V19.1H66z M77,29.8h163v49.8l0,0h-19.9v22.3H77L77,29.8L77,29.8z"/>
		<polygon class="st1" points="217.1,60.7 216.5,60.7 216,60.3 215.5,60.3 214.4,60.3 213.9,60.3 213.4,60.3 212.9,60 211.8,59.6 
			211.3,60.3 210.8,60.3 209.7,60.3 209.2,59.6 208.7,59.6 208.2,59 207.1,59.3 206.6,59.3 206.1,59 205.6,59 204.5,58.3 204,57.9 
			203.5,57.9 202.4,57.2 201.9,56.6 201.4,56.2 200.9,55.5 199.8,54.5 199.3,55.9 198.8,54.8 198.2,54.1 197.2,52.4 196.7,56.2 
			196.1,59.3 195.1,57.6 194.6,59 194.1,58.6 193.5,58.6 192.5,58.6 192,58.3 191.4,57.9 190.4,57.9 189.9,58.6 189.3,59.6 
			188.8,59.3 187.8,59.3 187.3,57.9 186.7,59 186.2,59 185.2,56.9 184.6,55.2 184.1,54.8 183.1,54.1 182.6,53.8 182,53.5 
			181.5,53.1 180.5,55.9 179.9,55.9 179.4,55.9 178.9,55.2 177.8,55.2 177.3,54.8 176.8,53.8 175.8,53.8 175.2,52.8 174.7,52.4 
			174.2,56.2 173.1,62.4 172.6,62.4 172.1,61.4 171.6,60.7 170.5,59.6 170,57.9 169.5,56.6 168.4,55.5 167.9,55.5 167.4,55.2 
			166.9,54.8 165.8,57.2 165.3,53.5 164.8,55.2 163.7,55.9 163.2,56.2 162.7,55.9 162.2,55.2 161.1,56.2 160.6,55.2 160.1,55.2 
			159.5,55.9 158.5,55.9 158,55.5 157.5,55.2 156.4,58.6 155.9,58.3 155.4,57.9 154.8,54.5 153.8,53.8 153.3,54.1 152.7,55.2 
			152.2,55.2 151.2,54.1 150.7,59.3 150.1,59.6 149.1,59.3 148.6,59 148,57.9 147.5,55.9 146.5,54.8 146,53.1 145.4,53.1 
			144.9,53.1 143.9,52.1 143.3,52.8 142.8,52.8 141.8,53.8 141.2,54.5 140.7,54.5 140.2,53.8 139.2,53.1 138.6,54.1 138.1,55.2 
			137.1,54.5 136.5,53.8 136,53.1 135.5,52.8 134.4,52.8 133.9,53.1 133.4,53.8 132.9,53.8 131.8,53.1 131.3,51.7 130.8,52.1 
			129.7,50.7 129.2,50 128.7,49.3 128.2,48.7 127.1,48 126.6,59.3 126.1,62.7 125.6,62.7 124.5,62.7 124,62.7 123.5,62.7 
			122.4,62.7 121.9,62.4 121.4,62.4 120.9,61.4 119.8,61.4 119.3,61.4 118.8,61 118.2,61 117.2,60.7 116.7,60.7 116.1,60.7 
			115.1,60.7 114.6,60.7 114.1,60.3 113.5,60.3 112.5,59.6 112,59.6 111.4,59 110.4,59 109.9,58.3 109.4,58.3 108.8,57.9 
			107.8,56.9 107.3,57.9 106.7,55.9 106.2,57.6 105.2,59 104.6,58.6 104.1,57.9 103.1,56.9 102.6,56.6 102,57.2 101.5,60.3 
			100.5,60.7 99.9,60.7 99.4,60.7 98.9,60.7 98.9,64.1 98.9,67.5 99.4,67.5 99.9,67.5 100.5,67.5 101.5,67.9 102,71 102.6,71.7 
			103.1,71.3 104.1,70.3 104.6,69.6 105.2,69.2 106.2,70.6 106.7,72.3 107.3,70.3 107.8,71.3 108.8,70.3 109.4,69.9 109.9,69.9 
			110.4,69.2 111.4,69.2 112,68.6 112.5,68.6 113.5,67.9 114.1,67.9 114.6,67.5 115.1,67.5 116.1,67.5 116.7,67.5 117.2,67.5 
			118.2,67.2 118.8,67.2 119.3,66.8 119.8,66.8 120.9,66.8 121.4,65.8 121.9,65.8 122.4,65.5 123.5,65.5 124,65.5 124.5,65.5 
			125.6,65.5 126.1,65.5 126.6,68.9 127.1,80.2 128.2,79.5 128.7,78.9 129.2,78.2 129.7,77.5 130.8,76.1 131.3,76.5 131.8,75.1 
			132.9,74.4 133.4,74.4 133.9,75.1 134.4,75.4 135.5,75.4 136,75.1 136.5,74.4 137.1,73.7 138.1,73 138.6,74.1 139.2,75.1 
			140.2,74.4 140.7,73.7 141.2,73.7 141.8,74.4 142.8,75.4 143.3,75.4 143.9,76.1 144.9,75.1 145.4,75.1 146,75.1 146.5,73.4 
			147.5,72.3 148,70.3 148.6,69.2 149.1,68.9 150.1,68.6 150.7,68.9 151.2,74.1 152.2,73 152.7,73 153.3,74.1 153.8,74.4 
			154.8,73.7 155.4,70.3 155.9,69.9 156.4,69.6 157.5,73 158,72.7 158.5,72.3 159.5,72.3 160.1,73 160.6,73 161.1,72 162.2,73 
			162.7,72.3 163.2,72 163.7,72.3 164.8,73 165.3,74.7 165.8,71 166.9,73.4 167.4,73 167.9,72.7 168.4,72.7 169.5,71.7 170,70.3 
			170.5,68.6 171.6,67.5 172.1,66.8 172.6,65.8 173.1,65.8 174.2,72 174.7,75.8 175.2,75.4 175.8,74.4 176.8,74.4 177.3,73.4 
			177.8,73 178.9,73 179.4,72.3 179.9,72.3 180.5,72.3 181.5,75.1 182,74.7 182.6,74.4 183.1,74.1 184.1,73.4 184.6,73 185.2,71.3 
			186.2,69.2 186.7,69.2 187.3,70.3 187.8,68.9 188.8,68.9 189.3,68.6 189.9,69.6 190.4,70.3 191.4,70.3 192,69.9 192.5,69.6 
			193.5,69.6 194.1,69.6 194.6,69.2 195.1,70.6 196.1,68.9 196.7,72 197.2,75.8 198.2,74.1 198.8,73.4 199.3,72.3 199.8,73.7 
			200.9,72.7 201.4,72 201.9,71.7 202.4,71 203.5,70.3 204,70.3 204.5,69.9 205.6,69.2 206.1,69.2 206.6,68.9 207.1,68.9 
			208.2,69.2 208.7,68.6 209.2,68.6 209.7,67.9 210.8,67.9 211.3,67.9 211.8,68.6 212.9,68.2 213.4,67.9 213.9,67.9 214.4,67.9 
			215.5,67.9 216,67.9 216.5,67.5 217.1,67.5 218.1,67.2 218.1,64.1 218.1,61 		"/>
	</g>
</g>
</svg>
