<?xml version="1.0" encoding="utf-8"?>
<!-- Generator: Adobe Illustrator 22.1.0, SVG Export Plug-In . SVG Version: 6.00 Build 0)  -->
<svg version="1.1" id="logo-SoundPoster" xmlns="http://www.w3.org/2000/svg" xmlns:xlink="http://www.w3.org/1999/xlink" x="0px"
	 y="0px" viewBox="0 0 39 30" style="enable-background:new 0 0 39 30;" xml:space="preserve">
<style type="text/css">
	.st0{fill:#7C3EB9;}
</style>
<title>Sans titre - 2</title>
<path class="st0" d="M1.4,1.4v27.3h28.8l7.6-8.5V1.4H1.4z M4.6,4.5h30V19l0,0h-5.8v6.5H4.6L4.6,4.5L4.6,4.5z"/>
<polygon class="st0" points="30.8,13.5 30.7,13.5 30.6,13.4 30.5,13.4 30.3,13.4 30.2,13.4 30.1,13.4 30,13.3 29.8,13.2 29.7,13.4 
	29.6,13.4 29.4,13.4 29.3,13.2 29.2,13.2 29.1,13 28.9,13.1 28.8,13.1 28.7,13 28.6,13 28.4,12.8 28.3,12.7 28.2,12.7 28,12.5 
	27.9,12.3 27.8,12.2 27.7,12 27.5,11.7 27.4,12.1 27.3,11.8 27.2,11.6 27,11.1 26.9,12.2 26.8,13.1 26.6,12.6 26.5,13 26.4,12.9 
	26.3,12.9 26.1,12.9 26,12.8 25.9,12.7 25.7,12.7 25.6,12.9 25.5,13.2 25.4,13.1 25.2,13.1 25.1,12.7 25,13 24.9,13 24.7,12.4 
	24.6,11.9 24.5,11.8 24.3,11.6 24.2,11.5 24.1,11.4 24,11.3 23.8,12.1 23.7,12.1 23.6,12.1 23.5,11.9 23.3,11.9 23.2,11.8 
	23.1,11.5 22.9,11.5 22.8,11.2 22.7,11.1 22.6,12.2 22.4,14 22.3,14 22.2,13.7 22.1,13.5 21.9,13.2 21.8,12.7 21.7,12.3 21.5,12 
	21.4,12 21.3,11.9 21.2,11.8 21,12.5 20.9,11.4 20.8,11.9 20.6,12.1 20.5,12.2 20.4,12.1 20.3,11.9 20.1,12.2 20,11.9 19.9,11.9 
	19.8,12.1 19.6,12.1 19.5,12 19.4,11.9 19.2,12.9 19.1,12.8 19,12.7 18.9,11.7 18.7,11.5 18.6,11.6 18.5,11.9 18.4,11.9 18.2,11.6 
	18.1,13.1 18,13.2 17.8,13.1 17.7,13 17.6,12.7 17.5,12.1 17.3,11.8 17.2,11.3 17.1,11.3 17,11.3 16.8,11 16.7,11.2 16.6,11.2 
	16.4,11.5 16.3,11.7 16.2,11.7 16.1,11.5 15.9,11.3 15.8,11.6 15.7,11.9 15.5,11.7 15.4,11.5 15.3,11.3 15.2,11.2 15,11.2 
	14.9,11.3 14.8,11.5 14.7,11.5 14.5,11.3 14.4,10.9 14.3,11 14.1,10.6 14,10.4 13.9,10.2 13.8,10 13.6,9.8 13.5,13.1 13.4,14.1 
	13.3,14.1 13.1,14.1 13,14.1 12.9,14.1 12.7,14.1 12.6,14 12.5,14 12.4,13.7 12.2,13.7 12.1,13.7 12,13.6 11.9,13.6 11.7,13.5 
	11.6,13.5 11.5,13.5 11.3,13.5 11.2,13.5 11.1,13.4 11,13.4 10.8,13.2 10.7,13.2 10.6,13 10.4,13 10.3,12.8 10.2,12.8 10.1,12.7 
	9.9,12.4 9.8,12.7 9.7,12.1 9.6,12.6 9.4,13 9.3,12.9 9.2,12.7 9,12.4 8.9,12.3 8.8,12.5 8.7,13.4 8.5,13.5 8.4,13.5 8.3,13.5 
	8.2,13.5 8.2,14.5 8.2,15.5 8.3,15.5 8.4,15.5 8.5,15.5 8.7,15.6 8.8,16.5 8.9,16.7 9,16.6 9.2,16.3 9.3,16.1 9.4,16 9.6,16.4 
	9.7,16.9 9.8,16.3 9.9,16.6 10.1,16.3 10.2,16.2 10.3,16.2 10.4,16 10.6,16 10.7,15.8 10.8,15.8 11,15.6 11.1,15.6 11.2,15.5 
	11.3,15.5 11.5,15.5 11.6,15.5 11.7,15.5 11.9,15.4 12,15.4 12.1,15.3 12.2,15.3 12.4,15.3 12.5,15 12.6,15 12.7,14.9 12.9,14.9 
	13,14.9 13.1,14.9 13.3,14.9 13.4,14.9 13.5,15.9 13.6,19.2 13.8,19 13.9,18.8 14,18.6 14.1,18.4 14.3,18 14.4,18.1 14.5,17.7 
	14.7,17.5 14.8,17.5 14.9,17.7 15,17.8 15.2,17.8 15.3,17.7 15.4,17.5 15.5,17.3 15.7,17.1 15.8,17.4 15.9,17.7 16.1,17.5 
	16.2,17.3 16.3,17.3 16.4,17.5 16.6,17.8 16.7,17.8 16.8,18 17,17.7 17.1,17.7 17.2,17.7 17.3,17.2 17.5,16.9 17.6,16.3 17.7,16 
	17.8,15.9 18,15.8 18.1,15.9 18.2,17.4 18.4,17.1 18.5,17.1 18.6,17.4 18.7,17.5 18.9,17.3 19,16.3 19.1,16.2 19.2,16.1 19.4,17.1 
	19.5,17 19.6,16.9 19.8,16.9 19.9,17.1 20,17.1 20.1,16.8 20.3,17.1 20.4,16.9 20.5,16.8 20.6,16.9 20.8,17.1 20.9,17.6 21,16.5 
	21.2,17.2 21.3,17.1 21.4,17 21.5,17 21.7,16.7 21.8,16.3 21.9,15.8 22.1,15.5 22.2,15.3 22.3,15 22.4,15 22.6,16.8 22.7,17.9 
	22.8,17.8 22.9,17.5 23.1,17.5 23.2,17.2 23.3,17.1 23.5,17.1 23.6,16.9 23.7,16.9 23.8,16.9 24,17.7 24.1,17.6 24.2,17.5 
	24.3,17.4 24.5,17.2 24.6,17.1 24.7,16.6 24.9,16 25,16 25.1,16.3 25.2,15.9 25.4,15.9 25.5,15.8 25.6,16.1 25.7,16.3 25.9,16.3 
	26,16.2 26.1,16.1 26.3,16.1 26.4,16.1 26.5,16 26.6,16.4 26.8,15.9 26.9,16.8 27,17.9 27.2,17.4 27.3,17.2 27.4,16.9 27.5,17.3 
	27.7,17 27.8,16.8 27.9,16.7 28,16.5 28.2,16.3 28.3,16.3 28.4,16.2 28.6,16 28.7,16 28.8,15.9 28.9,15.9 29.1,16 29.2,15.8 
	29.3,15.8 29.4,15.6 29.6,15.6 29.7,15.6 29.8,15.8 30,15.7 30.1,15.6 30.2,15.6 30.3,15.6 30.5,15.6 30.6,15.6 30.7,15.5 
	30.8,15.5 31,15.4 31,14.5 31,13.6 "/>
</svg>
