<?xml version="1.0" encoding="utf-8"?>
<!-- Generator: Adobe Illustrator 22.1.0, SVG Export Plug-In . SVG Version: 6.00 Build 0)  -->
<svg version="1.1" id="logo-SoundPoster" xmlns="http://www.w3.org/2000/svg" xmlns:xlink="http://www.w3.org/1999/xlink" x="0px"
	 y="0px" viewBox="0 0 280 30" style="enable-background:new 0 0 280 30;" xml:space="preserve">
<style type="text/css">
	.st0{fill:#31242B;}
	.st1{fill:#7C3EB9;}
</style>
<title>Sans titre - 2</title>
<path class="st0" d="M0,22.9l3-3.5c2,1.7,4.2,2.8,6.8,2.8c2,0,3.3-0.8,3.3-2.2l0,0c0-1.3-0.8-1.9-4.6-2.9c-4.6-1.2-7.6-2.5-7.6-7
	V9.9c0-4.1,3.3-6.9,8-6.9C12,3,15,4,17.4,6l-2.6,3.8c-2-1.4-4-2.2-5.9-2.2s-3,0.9-3,2v0.1c0,1.5,1,2,4.9,3c4.6,1.2,7.2,2.9,7.2,6.8
	v0.1c0,4.5-3.5,7.1-8.4,7.1C6.1,26.6,2.7,25.3,0,22.9z"/>
<path class="st0" d="M18.4,14.9L18.4,14.9C18.4,8.3,23.5,3,30.6,3s12.1,5.2,12.1,11.7v0.1c0,6.5-5.1,11.8-12.2,11.8
	S18.4,21.4,18.4,14.9z M37.4,14.9L37.4,14.9c0-4-2.9-7.2-6.9-7.2s-6.8,3.2-6.8,7.1v0.1c0,3.9,2.9,7.2,6.9,7.2S37.4,18.8,37.4,14.9z"
	/>
<path class="st0" d="M44.5,16.4v-13h5v12.9c0,3.7,1.8,5.6,4.9,5.6s4.9-1.8,4.9-5.5v-13h5v12.9c0,6.9-3.9,10.3-10,10.3
	S44.5,23.2,44.5,16.4z"/>
<path class="st0" d="M66.6,3.4h4.6l10.7,14v-14h5v22.8h-4.3L71.5,11.7v14.5h-5L66.6,3.4L66.6,3.4z"/>
<path class="st0" d="M89.1,3.4H98c7.2,0,12.2,4.9,12.2,11.3v0.1c0,6.4-5,11.4-12.1,11.4h-8.9L89.1,3.4L89.1,3.4z M98,21.7
	c4.1,0,6.9-2.8,6.9-6.8v-0.1c0-4.1-2.8-6.9-6.9-6.9h-3.9v13.8C94.2,21.7,98,21.7,98,21.7z"/>
<path class="st0" d="M158.6,3.4h9.3c5.5,0,8.7,3.2,8.7,7.9v0.1c0,5.3-4.1,8-9.2,8h-3.8v6.8h-5V3.4L158.6,3.4z M167.6,14.9
	c2.5,0,4-1.5,4-3.5v-0.1c0-2.2-1.6-3.5-4.1-3.5h-3.9v7h4V14.9z"/>
<path class="st0" d="M177.9,14.9L177.9,14.9C177.9,8.3,183,3,190,3s12.1,5.2,12.1,11.7v0.1c0,6.5-5.1,11.8-12.2,11.8
	S177.9,21.4,177.9,14.9z M196.9,14.9L196.9,14.9c0-4-2.9-7.2-6.9-7.2c-4.1,0-6.8,3.2-6.8,7.1v0.1c0,3.9,2.9,7.2,6.9,7.2
	C194.1,22,196.9,18.8,196.9,14.9L196.9,14.9z"/>
<path class="st0" d="M202.2,22.9l3-3.5c2,1.7,4.2,2.8,6.8,2.8c2,0,3.3-0.8,3.3-2.2l0,0c0-1.3-0.8-1.9-4.6-2.9
	c-4.6-1.2-7.6-2.4-7.6-7V10c0-4.1,3.3-6.9,8-6.9c3.1,0,6.1,1,8.5,2.9L217,9.8c-2-1.4-4-2.2-5.9-2.2s-3,0.9-3,2v0.1c0,1.5,1,2,4.9,3
	c4.6,1.2,7.2,2.9,7.2,6.8l0,0c0,4.5-3.5,7.1-8.4,7.1C208.3,26.6,204.8,25.3,202.2,22.9z"/>
<path class="st0" d="M227.3,8h-7V3.4h18.9V8h-7v18.2h-5L227.3,8L227.3,8z"/>
<path class="st0" d="M241.2,3.4h17.2v4.5h-12.2v4.6H257V17h-10.7v4.8h12.4v4.5h-17.4V3.4H241.2z"/>
<path class="st0" d="M260.3,3.4h10.4c2.9,0,5.2,0.8,6.7,2.3c1.3,1.3,2,3.1,2,5.2V11c0,3.7-2,6-4.9,7.1l5.6,8.1h-5.9l-4.9-7.3h-3.9
	v7.3h-5V3.4H260.3z M270.4,14.5c2.4,0,3.9-1.3,3.9-3.2v-0.1c0-2.2-1.5-3.3-3.9-3.3h-5v6.6H270.4z"/>
<path class="st1" d="M115.7,1.4v27.3h28.8l7.6-8.5V1.4H115.7z M118.9,4.5h30V19l0,0h-5.8v6.5h-24.2L118.9,4.5L118.9,4.5z"/>
<polygon class="st1" points="145.1,13.5 145,13.5 144.9,13.4 144.8,13.4 144.6,13.4 144.5,13.4 144.4,13.4 144.3,13.3 144.1,13.2 
	144,13.4 143.9,13.4 143.7,13.4 143.6,13.2 143.5,13.2 143.4,13 143.2,13.1 143.1,13.1 143,13 142.9,13 142.7,12.8 142.6,12.7 
	142.5,12.7 142.3,12.5 142.2,12.3 142.1,12.2 142,12 141.8,11.7 141.7,12.1 141.6,11.8 141.5,11.6 141.3,11.1 141.2,12.2 
	141.1,13.1 140.9,12.6 140.8,13 140.7,12.9 140.6,12.9 140.4,12.9 140.3,12.8 140.2,12.7 140,12.7 139.9,12.9 139.8,13.2 
	139.7,13.1 139.5,13.1 139.4,12.7 139.3,13 139.2,13 139,12.4 138.9,11.9 138.8,11.8 138.6,11.6 138.5,11.5 138.4,11.4 138.3,11.3 
	138.1,12.1 138,12.1 137.9,12.1 137.8,11.9 137.6,11.9 137.5,11.8 137.4,11.5 137.2,11.5 137.1,11.2 137,11.1 136.9,12.2 136.7,14 
	136.6,14 136.5,13.7 136.4,13.5 136.2,13.2 136.1,12.7 136,12.3 135.8,12 135.7,12 135.6,11.9 135.5,11.8 135.3,12.5 135.2,11.4 
	135.1,11.9 134.9,12.1 134.8,12.2 134.7,12.1 134.6,11.9 134.4,12.2 134.3,11.9 134.2,11.9 134.1,12.1 133.9,12.1 133.8,12 
	133.7,11.9 133.5,12.9 133.4,12.8 133.3,12.7 133.2,11.7 133,11.5 132.9,11.6 132.8,11.9 132.7,11.9 132.5,11.6 132.4,13.1 
	132.3,13.2 132.1,13.1 132,13 131.9,12.7 131.8,12.1 131.6,11.8 131.5,11.3 131.4,11.3 131.3,11.3 131.1,11 131,11.2 130.9,11.2 
	130.7,11.5 130.6,11.7 130.5,11.7 130.4,11.5 130.2,11.3 130.1,11.6 130,11.9 129.8,11.7 129.7,11.5 129.6,11.3 129.5,11.2 
	129.3,11.2 129.2,11.3 129.1,11.5 129,11.5 128.8,11.3 128.7,10.9 128.6,11 128.4,10.6 128.3,10.4 128.2,10.2 128.1,10 127.9,9.8 
	127.8,13.1 127.7,14.1 127.6,14.1 127.4,14.1 127.3,14.1 127.2,14.1 127,14.1 126.9,14 126.8,14 126.7,13.7 126.5,13.7 126.4,13.7 
	126.3,13.6 126.2,13.6 126,13.5 125.9,13.5 125.8,13.5 125.6,13.5 125.5,13.5 125.4,13.4 125.3,13.4 125.1,13.2 125,13.2 124.9,13 
	124.7,13 124.6,12.8 124.5,12.8 124.4,12.7 124.2,12.4 124.1,12.7 124,12.1 123.9,12.6 123.7,13 123.6,12.9 123.5,12.7 123.3,12.4 
	123.2,12.3 123.1,12.5 123,13.4 122.8,13.5 122.7,13.5 122.6,13.5 122.5,13.5 122.5,14.5 122.5,15.5 122.6,15.5 122.7,15.5 
	122.8,15.5 123,15.6 123.1,16.5 123.2,16.7 123.3,16.6 123.5,16.3 123.6,16.1 123.7,16 123.9,16.4 124,16.9 124.1,16.3 124.2,16.6 
	124.4,16.3 124.5,16.2 124.6,16.2 124.7,16 124.9,16 125,15.8 125.1,15.8 125.3,15.6 125.4,15.6 125.5,15.5 125.6,15.5 125.8,15.5 
	125.9,15.5 126,15.5 126.2,15.4 126.3,15.4 126.4,15.3 126.5,15.3 126.7,15.3 126.8,15 126.9,15 127,14.9 127.2,14.9 127.3,14.9 
	127.4,14.9 127.6,14.9 127.7,14.9 127.8,15.9 127.9,19.2 128.1,19 128.2,18.8 128.3,18.6 128.4,18.4 128.6,18 128.7,18.1 
	128.8,17.7 129,17.5 129.1,17.5 129.2,17.7 129.3,17.8 129.5,17.8 129.6,17.7 129.7,17.5 129.8,17.3 130,17.1 130.1,17.4 
	130.2,17.7 130.4,17.5 130.5,17.3 130.6,17.3 130.7,17.5 130.9,17.8 131,17.8 131.1,18 131.3,17.7 131.4,17.7 131.5,17.7 
	131.6,17.2 131.8,16.9 131.9,16.3 132,16 132.1,15.9 132.3,15.8 132.4,15.9 132.5,17.4 132.7,17.1 132.8,17.1 132.9,17.4 133,17.5 
	133.2,17.3 133.3,16.3 133.4,16.2 133.5,16.1 133.7,17.1 133.8,17 133.9,16.9 134.1,16.9 134.2,17.1 134.3,17.1 134.4,16.8 
	134.6,17.1 134.7,16.9 134.8,16.8 134.9,16.9 135.1,17.1 135.2,17.6 135.3,16.5 135.5,17.2 135.6,17.1 135.7,17 135.8,17 136,16.7 
	136.1,16.3 136.2,15.8 136.4,15.5 136.5,15.3 136.6,15 136.7,15 136.9,16.8 137,17.9 137.1,17.8 137.2,17.5 137.4,17.5 137.5,17.2 
	137.6,17.1 137.8,17.1 137.9,16.9 138,16.9 138.1,16.9 138.3,17.7 138.4,17.6 138.5,17.5 138.6,17.4 138.8,17.2 138.9,17.1 
	139,16.6 139.2,16 139.3,16 139.4,16.3 139.5,15.9 139.7,15.9 139.8,15.8 139.9,16.1 140,16.3 140.2,16.3 140.3,16.2 140.4,16.1 
	140.6,16.1 140.7,16.1 140.8,16 140.9,16.4 141.1,15.9 141.2,16.8 141.3,17.9 141.5,17.4 141.6,17.2 141.7,16.9 141.8,17.3 142,17 
	142.1,16.8 142.2,16.7 142.3,16.5 142.5,16.3 142.6,16.3 142.7,16.2 142.9,16 143,16 143.1,15.9 143.2,15.9 143.4,16 143.5,15.8 
	143.6,15.8 143.7,15.6 143.9,15.6 144,15.6 144.1,15.8 144.3,15.7 144.4,15.6 144.5,15.6 144.6,15.6 144.8,15.6 144.9,15.6 
	145,15.5 145.1,15.5 145.3,15.4 145.3,14.5 145.3,13.6 "/>
</svg>
