<?xml version="1.0" encoding="utf-8"?>
<!-- Generator: Adobe Illustrator 22.1.0, SVG Export Plug-In . SVG Version: 6.00 Build 0)  -->
<svg version="1.1" id="Calque_1" xmlns="http://www.w3.org/2000/svg" xmlns:xlink="http://www.w3.org/1999/xlink" x="0px" y="0px"
	 viewBox="0 0 317 276" style="enable-background:new 0 0 317 276;" xml:space="preserve">
<style type="text/css">
	.st0{fill:#7C3EB9;}
	.st1{fill:#EB0066;}
	.st2{fill:url(#SVGID_1_);}
	.st3{fill:url(#SVGID_2_);}
	.st4{fill:url(#SVGID_3_);}
</style>
<polygon class="st0" points="202.2,72.5 202.2,87.4 274.2,87.4 274.2,156.9 246.3,156.9 246.3,188.1 202.2,188.1 202.2,203.5 
	253.1,203.5 289.5,162.7 289.5,72.5 "/>
<polygon class="st0" points="203.7,150.5 204.1,150.5 204.6,149 205.6,150.5 206.1,149.5 206.5,149 207,149.5 208,150.5 
	208.5,152.9 208.9,147.6 209.9,150.9 210.4,150.5 210.9,150 211.3,150 212.3,148.6 212.8,146.6 213.3,144.2 214.2,142.8 
	214.7,141.8 215.2,140.4 215.7,140.4 216.6,149 217.1,154.3 217.6,153.8 218,152.4 219,152.4 219.5,150.9 220,150.5 220.9,150.5 
	221.4,149.5 221.9,149.5 222.4,149.5 223.3,153.3 223.8,152.9 224.3,152.4 224.8,151.9 225.7,150.9 226.2,150.5 226.7,148.1 
	227.6,145.2 228.1,145.2 228.6,146.6 229.1,144.7 230,144.7 230.5,144.2 231,145.7 231.5,146.6 232.4,146.6 232.9,146.2 
	233.4,145.7 234.4,145.7 234.8,145.7 235.3,145.2 235.8,147.1 236.8,144.7 237.2,149 237.7,154.3 238.7,151.9 239.1,150.9 
	239.6,149.5 240.1,151.4 241.1,150 241.5,149 242,148.6 242.5,147.6 243.5,146.6 243.9,146.6 244.4,146.2 245.4,145.2 245.9,145.2 
	246.3,144.7 246.8,144.7 247.8,145.2 248.3,144.2 248.7,144.2 249.2,143.3 250.2,143.3 250.7,143.3 251.1,144.2 252.1,143.8 
	252.6,143.3 253.1,143.3 253.5,143.3 254.5,143.3 255,143.3 255.5,142.8 255.9,142.8 256.9,142.3 256.9,138 256.9,133.7 
	255.9,133.2 255.5,133.2 255,132.7 254.5,132.7 253.5,132.7 253.1,132.7 252.6,132.7 252.1,132.2 251.1,131.8 250.7,132.7 
	250.2,132.7 249.2,132.7 248.7,131.8 248.3,131.8 247.8,130.8 246.8,131.3 246.3,131.3 245.9,130.8 245.4,130.8 244.4,129.8 
	243.9,129.4 243.5,129.4 242.5,128.4 242,127.4 241.5,127 241.1,126 240.1,124.6 239.6,126.5 239.1,125.1 238.7,124.1 237.7,121.7 
	237.2,127 236.8,131.3 235.8,128.9 235.3,130.8 234.8,130.3 234.4,130.3 233.4,130.3 232.9,129.8 232.4,129.4 231.5,129.4 
	231,130.3 230.5,131.8 230,131.3 229.1,131.3 228.6,129.4 228.1,130.8 227.6,130.8 226.7,127.9 226.2,125.5 225.7,125.1 
	224.8,124.1 224.3,123.6 223.8,123.1 223.3,122.7 222.4,126.5 221.9,126.5 221.4,126.5 220.9,125.5 220,125.5 219.5,125.1 
	219,123.6 218,123.6 217.6,122.2 217.1,121.7 216.6,127 215.7,135.6 215.2,135.6 214.7,134.2 214.2,133.2 213.3,131.8 212.8,129.4 
	212.3,127.4 211.3,126 210.9,126 210.4,125.5 209.9,125.1 208.9,128.4 208.5,123.1 208,125.5 207,126.5 206.5,127 206.1,126.5 
	205.6,125.5 204.6,127 204.1,125.5 203.7,125.5 203.2,126.5 202.2,126.5 202.2,149.5 203.2,149.5 "/>
<polygon class="st1" points="117,87.2 117,85.6 116.8,87.3 116.6,93.1 116.5,89.8 116.3,84.8 116.1,86.5 115.9,86.5 115.7,94 
	115.6,94 115.4,94 115.2,96.4 115,94.8 114.9,93.1 114.7,90.6 114.5,91.5 114.3,94 114.2,89.8 114,92.3 113.8,95.6 113.6,94 
	113.5,95.6 113.3,89.8 113.1,80.7 112.9,95.6 112.8,88.1 112.6,90.6 112.4,81.5 112.2,96.4 112.1,98.1 111.9,84 111.7,87.3 
	111.5,96.4 111.4,86.5 111.2,94.8 111,84.8 110.8,92.3 110.6,90.6 110.5,89.8 110.3,84.8 110.1,91.5 109.9,91.5 109.8,96.4 
	109.6,99.8 109.4,98.1 109.2,91.5 109.1,96.4 108.9,91.5 108.7,98.1 108.5,96.4 108.4,95.6 108.2,94 108,102.3 107.8,96.4 
	107.7,100.6 107.5,89.8 107.3,98.1 107.1,98.9 107,80.7 106.8,76.5 106.6,103.1 106.4,105.6 106.3,99.8 106.1,108.1 105.9,91.5 
	105.7,107.3 105.5,108.1 105.4,103.1 105.2,98.9 105,100.6 104.8,103.1 104.7,102.3 104.5,88.1 104.3,102.3 104.1,98.9 104,104.8 
	103.8,100.6 103.6,106.4 103.4,103.9 103.3,99.8 103.1,87.3 102.9,94.8 102.7,101.4 102.6,101.4 102.4,98.9 102.2,94 102,91.5 
	101.9,84 101.7,87.3 101.5,87.3 101.3,83.2 101.2,89 101,92.3 100.8,105.6 100.6,108.1 100.4,108.1 100.3,90.6 100.1,107.3 
	99.9,105.6 99.7,101.4 99.6,100.6 99.4,106.4 99.2,97.3 99,101.4 98.9,93.1 98.7,107.3 98.5,104.8 98.3,106.4 98.2,98.1 98,106.4 
	97.8,103.1 97.6,108.1 97.5,96.4 97.3,95.6 97.1,97.3 96.9,94 96.8,94.8 96.6,88.1 96.4,82.3 96.2,82.3 96.1,89 95.9,101.4 
	95.7,88.1 95.5,94 95.3,103.1 95.2,108.1 95,105.6 94.8,113.1 94.6,94.8 94.5,108.1 94.3,107.3 94.1,108.9 93.9,98.9 93.8,108.9 
	93.6,105.6 93.4,103.9 93.2,98.1 93.1,104.8 92.9,105.6 92.7,109.7 92.5,102.3 92.4,105.6 92.2,99.8 92,103.9 91.8,94.8 91.7,103.1 
	91.5,104.8 91.3,106.4 91.1,98.9 91,98.9 90.8,94 90.6,94.8 90.4,91.5 90.3,89 90.1,85.6 89.9,95.6 89.7,103.1 89.5,108.1 
	89.4,111.4 89.2,107.3 89,96.4 88.8,109.7 88.7,106.4 88.5,107.3 88.3,102.3 88.1,108.9 88,101.4 87.8,102.3 87.6,96.4 87.4,108.9 
	87.3,108.9 87.1,110.6 86.9,103.1 86.7,110.6 86.6,107.3 86.4,106.4 86.2,95.6 86,99.8 85.9,98.9 85.7,99.8 85.5,95.6 85.3,93.1 
	85.2,86.5 85,89 84.8,116.4 84.6,132.2 84.4,131.4 84.3,124.7 84.1,128 83.9,123.9 83.7,119.7 83.6,113.9 83.4,118.9 83.2,114.7 
	83,116.4 82.9,106.4 82.7,117.2 82.5,131.4 82.3,121.4 82.2,103.9 82,100.6 81.8,113.1 81.6,97.3 81.5,103.1 81.3,105.6 81.1,108.9 
	80.9,102.3 80.8,88.1 80.6,110.6 80.4,108.9 80.2,96.4 80.1,91.5 79.9,99.8 79.7,103.9 79.5,88.1 79.3,85.6 79.2,84 79,74 
	78.8,105.6 78.6,107.3 78.5,112.2 78.3,104.8 78.1,113.1 77.9,102.3 77.8,115.6 77.6,105.6 77.4,120.5 77.2,130.5 77.1,128.9 
	76.9,128 76.7,127.2 76.5,103.9 76.4,123 76.2,123 76,102.3 75.8,122.2 75.7,112.2 75.5,118.1 75.3,111.4 75.1,97.3 75,87.3 
	74.8,86.5 74.6,79.8 74.4,89 74.2,118.9 74.1,130.5 73.9,133 73.7,127.2 73.5,129.7 73.4,84 73.2,118.9 73,114.7 72.8,123 
	72.7,107.3 72.5,122.2 72.3,110.6 72.1,106.4 72,113.9 71.8,111.4 71.6,113.9 71.4,97.3 71.3,89 71.1,86.5 70.9,96.4 70.7,115.6 
	70.6,122.2 70.4,117.2 70.2,122.2 70,100.6 69.9,98.9 69.7,99.8 69.5,95.6 69.3,123.9 69.1,101.4 69,133.8 68.8,133 68.6,131.4 
	68.4,132.2 68.3,128 68.1,100.6 67.9,119.7 67.7,120.5 67.6,119.7 67.4,115.6 67.2,101.4 67,100.6 66.9,100.6 66.7,107.3 
	66.5,133.8 66.3,116.4 66.2,107.3 66,131.4 65.8,121.4 65.6,130.5 65.5,124.7 65.3,108.1 65.1,133.8 64.9,133 64.8,110.6 64.6,88.1 
	64.4,94 64.2,98.1 64,110.6 63.9,102.3 63.7,96.4 63.5,105.6 63.3,113.9 63.2,119.7 63,109.7 62.8,119.7 62.6,127.2 62.5,127.2 
	62.3,130.5 62.1,133 61.9,130.5 61.8,128 61.6,129.7 61.4,129.7 61.2,130.5 61.1,98.1 60.9,81.5 60.7,81.5 60.5,84 60.4,84 
	60.2,80.7 60,98.9 59.8,102.3 59.7,121.4 59.5,131.4 59.3,130.5 59.1,111.4 59,116.4 58.8,133.8 58.6,131.4 58.4,103.1 58.2,103.9 
	58.1,103.9 57.9,105.6 57.7,102.3 57.5,125.5 57.4,103.9 57.2,119.7 57,131.4 56.8,129.7 56.7,129.7 56.5,127.2 56.3,106.4 
	56.1,122.2 56,100.6 55.8,118.1 55.6,128 55.4,127.2 55.3,111.4 55.1,85.6 54.9,83.2 54.7,95.6 54.6,83.2 54.4,85.6 54.2,91.5 
	54,120.5 53.9,113.9 53.7,102.3 53.5,89 53.3,120.5 53.1,98.1 53,119.7 52.8,103.9 52.6,122.2 52.4,121.4 52.3,93.1 52.1,98.9 
	51.9,117.2 51.7,100.6 51.6,117.2 51.4,101.4 51.2,112.2 51,98.1 50.9,116.4 50.7,116.4 50.5,102.3 50.3,103.1 50.2,99.8 50,92.3 
	49.8,79.8 49.6,87.3 49.5,78.2 49.3,120.5 49.1,114.7 48.9,119.7 48.8,118.1 48.6,102.3 48.4,122.2 48.2,125.5 48,118.1 47.9,94 
	47.7,99.8 47.5,106.4 47.3,103.9 47.2,103.1 47,127.2 46.8,124.7 46.6,118.1 46.5,100.6 46.3,127.2 46.1,124.7 45.9,123.9 
	45.8,101.4 45.6,119.7 45.4,126.4 45.2,123 45.1,97.3 44.9,127.2 44.7,125.5 44.5,120.5 44.4,100.6 44.2,116.4 44,99.8 43.8,127.2 
	43.7,123.9 43.5,118.9 43.3,114.7 43.1,96.4 42.9,88.1 42.8,80.7 42.6,81.5 42.4,81.5 42.2,103.1 42.1,130.5 41.9,128.9 41.7,128 
	41.5,127.2 41.4,128 41.2,128.9 41,128.9 40.8,128 40.7,128 40.5,128 40.3,127.2 40.1,127.2 40,125.5 39.8,127.2 39.6,127.2 
	39.4,128 39.3,124.7 39.1,126.4 38.9,128 38.7,128.9 38.6,130.5 38.4,131.4 38.2,129.7 38,129.7 37.8,131.4 37.7,132.2 37.5,130.5 
	37.3,129.7 37.1,131.4 37,130.5 36.8,129.7 36.6,128.9 36.4,125.5 36.3,125.5 36.1,118.9 35.9,114.7 35.7,109.7 35.6,108.1 
	35.4,97.3 35.2,74 35,69 34.9,135.5 34.7,127.2 34.5,107.3 34.3,98.9 34.2,111.4 34,133 33.8,137.2 33.6,136.3 33.5,135.5 
	33.3,135.5 33.1,133.8 32.9,134.7 32.7,136.3 32.6,128.9 32.4,119.7 32.2,113.1 32,135.5 31.9,135.5 31.7,134.7 31.5,124.7 
	31.3,136.3 31.2,135.5 31,131.4 30.8,118.9 30.6,133.8 30.5,129.7 30.3,126.4 30.1,115.6 29.9,134.7 29.8,132.2 29.6,110.6 
	29.4,122.2 29.2,132.2 29.1,123 28.9,106.4 28.7,103.1 28.5,113.1 28.4,137.2 28.2,137.2 28,136.3 27.8,136.3 27.7,135.5 
	27.5,135.5 27.3,134.7 27.1,136.3 26.9,124.7 26.8,113.1 26.6,119.7 26.4,137.2 26.2,135.5 26.1,133.8 25.9,133 25.7,136.3 
	25.5,131.4 25.4,122.2 25.2,113.9 25,135.5 24.8,123 24.7,112.2 24.5,124.7 24.3,123 24.1,100.6 24,116.4 23.8,123.9 23.6,137.2 
	23.4,137.2 23.3,137.2 23.1,137.2 22.9,137.2 22.7,137.2 22.6,137.2 22.4,137.2 22.2,137.2 22,136.3 21.8,134.7 21.7,136.3 
	21.5,137.2 21.3,137.2 21.1,136.3 21,134.7 20.8,133.8 20.6,133.8 20.4,134.7 20.3,134.7 20.1,135.5 19.9,136.3 19.7,134.7 
	19.6,133.8 19.4,133 19.2,132.2 19,133 18.9,135.5 18.7,134.7 18.5,133.8 18.3,133 18.2,130.5 18,131.4 17.8,128.9 17.6,128.9 
	17.5,128.9 17.3,128.9 17.1,128 16.9,136.3 16.7,137.2 16.6,137.2 16.4,135.5 16.2,137.2 16,137.2 15.9,137.2 15.7,137.2 
	15.5,135.5 15.3,134.7 15.2,132.2 15,135.5 14.8,136.3 14.6,136.3 14.5,136.3 14.3,135.5 14.1,133.8 13.9,133.8 13.8,132.2 
	13.6,133 13.4,132.2 13.2,130.5 13.1,129.7 12.9,130.5 12.7,130.5 12.5,129.7 12.4,128.9 12.2,137.2 12,138 12.2,138.8 12.4,147.1 
	12.5,146.3 12.7,145.5 12.9,145.5 13.1,146.3 13.2,145.5 13.4,143.8 13.6,143 13.8,143.8 13.9,142.2 14.1,142.2 14.3,140.5 
	14.5,139.7 14.6,139.7 14.8,139.7 15,140.5 15.2,143.8 15.3,141.3 15.5,140.5 15.7,138.8 15.9,138.8 16,138.8 16.2,138.8 
	16.4,140.5 16.6,138.8 16.7,138.8 16.9,139.7 17.1,148 17.3,147.1 17.5,147.1 17.6,147.1 17.8,147.1 18,144.6 18.2,145.5 18.3,143 
	18.5,142.2 18.7,141.3 18.9,140.5 19,143 19.2,143.8 19.4,143 19.6,142.2 19.7,141.3 19.9,139.7 20.1,140.5 20.3,141.3 20.4,141.3 
	20.6,142.2 20.8,142.2 21,141.3 21.1,139.7 21.3,138.8 21.5,138.8 21.7,139.7 21.8,141.3 22,139.7 22.2,138.8 22.4,138.8 
	22.6,138.8 22.7,138.8 22.9,138.8 23.1,138.8 23.3,138.8 23.4,138.8 23.6,138.8 23.8,152.1 24,159.6 24.1,175.4 24.3,153 
	24.5,151.3 24.7,163.8 24.8,153 25,140.5 25.2,162.1 25.4,153.8 25.5,144.6 25.7,139.7 25.9,143 26.1,142.2 26.2,140.5 26.4,138.8 
	26.6,156.3 26.8,162.9 26.9,151.3 27.1,139.7 27.3,141.3 27.5,140.5 27.7,140.5 27.8,139.7 28,139.7 28.2,138.8 28.4,138.8 
	28.5,162.9 28.7,172.9 28.9,169.6 29.1,153 29.2,143.8 29.4,153.8 29.6,165.4 29.8,143.8 29.9,141.3 30.1,160.4 30.3,149.6 
	30.5,146.3 30.6,142.2 30.8,157.1 31,144.6 31.2,140.5 31.3,139.7 31.5,151.3 31.7,141.3 31.9,140.5 32,140.5 32.2,162.9 
	32.4,156.3 32.6,147.1 32.7,139.7 32.9,141.3 33.1,142.2 33.3,140.5 33.5,140.5 33.6,139.7 33.8,138.8 34,143 34.2,164.6 
	34.3,177.1 34.5,168.7 34.7,148.8 34.9,140.5 35,207 35.2,202 35.4,178.7 35.6,167.9 35.7,166.3 35.9,161.3 36.1,157.1 36.3,150.5 
	36.4,150.5 36.6,147.1 36.8,146.3 37,145.5 37.1,144.6 37.3,146.3 37.5,145.5 37.7,143.8 37.8,144.6 38,146.3 38.2,146.3 
	38.4,144.6 38.6,145.5 38.7,147.1 38.9,148 39.1,149.6 39.3,151.3 39.4,148 39.6,148.8 39.8,148.8 40,150.5 40.1,148.8 40.3,148.8 
	40.5,148 40.7,148 40.8,148 41,147.1 41.2,147.1 41.4,148 41.5,148.8 41.7,148 41.9,147.1 42.1,145.5 42.2,172.9 42.4,194.5 
	42.6,194.5 42.8,195.3 42.9,187.9 43.1,179.6 43.3,161.3 43.5,157.1 43.7,152.1 43.8,148.8 44,176.2 44.2,159.6 44.4,175.4 
	44.5,155.5 44.7,150.5 44.9,148.8 45.1,178.7 45.2,153 45.4,149.6 45.6,156.3 45.8,174.6 45.9,152.1 46.1,151.3 46.3,148.8 
	46.5,175.4 46.6,157.9 46.8,151.3 47,148.8 47.2,172.9 47.3,172.1 47.5,169.6 47.7,176.2 47.9,182 48,157.9 48.2,150.5 48.4,153.8 
	48.6,173.7 48.8,157.9 48.9,156.3 49.1,161.3 49.3,155.5 49.5,197.8 49.6,188.7 49.8,196.2 50,183.7 50.2,176.2 50.3,172.9 
	50.5,173.7 50.7,159.6 50.9,159.6 51,177.9 51.2,163.8 51.4,174.6 51.6,158.8 51.7,175.4 51.9,158.8 52.1,177.1 52.3,182.9 
	52.4,154.6 52.6,153.8 52.8,172.1 53,156.3 53.1,177.9 53.3,155.5 53.5,187 53.7,173.7 53.9,162.1 54,155.5 54.2,184.5 54.4,190.4 
	54.6,192.8 54.7,180.4 54.9,192.8 55.1,190.4 55.3,164.6 55.4,148.8 55.6,148 55.8,157.9 56,175.4 56.1,153.8 56.3,169.6 
	56.5,148.8 56.7,146.3 56.8,146.3 57,144.6 57.2,156.3 57.4,172.1 57.5,150.5 57.7,173.7 57.9,170.4 58.1,172.1 58.2,172.1 
	58.4,172.9 58.6,144.6 58.8,142.2 59,159.6 59.1,164.6 59.3,145.5 59.5,144.6 59.7,154.6 59.8,173.7 60,177.1 60.2,195.3 60.4,192 
	60.5,192 60.7,194.5 60.9,194.5 61.1,177.9 61.2,145.5 61.4,146.3 61.6,146.3 61.8,148 61.9,145.5 62.1,143 62.3,145.5 62.5,148.8 
	62.6,148.8 62.8,156.3 63,166.3 63.2,156.3 63.3,162.1 63.5,170.4 63.7,179.6 63.9,173.7 64,165.4 64.2,177.9 64.4,182 64.6,187.9 
	64.8,165.4 64.9,143 65.1,142.2 65.3,167.9 65.5,151.3 65.6,145.5 65.8,154.6 66,144.6 66.2,168.7 66.3,159.6 66.5,142.2 
	66.7,168.7 66.9,175.4 67,175.4 67.2,174.6 67.4,160.4 67.6,156.3 67.7,155.5 67.9,156.3 68.1,175.4 68.3,148 68.4,143.8 
	68.6,144.6 68.8,143 69,142.2 69.1,174.6 69.3,152.1 69.5,180.4 69.7,176.2 69.9,177.1 70,175.4 70.2,153.8 70.4,158.8 70.6,153.8 
	70.7,160.4 70.9,179.6 71.1,189.5 71.3,187 71.4,178.7 71.6,162.1 71.8,164.6 72,162.1 72.1,169.6 72.3,165.4 72.5,153.8 
	72.7,168.7 72.8,153 73,161.3 73.2,157.1 73.4,192 73.5,146.3 73.7,148.8 73.9,143 74.1,145.5 74.2,157.1 74.4,187 74.6,196.2 
	74.8,189.5 75,188.7 75.1,178.7 75.3,164.6 75.5,157.9 75.7,163.8 75.8,153.8 76,173.7 76.2,153 76.4,153 76.5,172.1 76.7,148.8 
	76.9,148 77.1,147.1 77.2,145.5 77.4,155.5 77.6,170.4 77.8,160.4 77.9,173.7 78.1,162.9 78.3,171.2 78.5,163.8 78.6,168.7 
	78.8,170.4 79,202 79.2,192 79.3,190.4 79.5,187.9 79.7,172.1 79.9,176.2 80.1,184.5 80.2,179.6 80.4,167.1 80.6,165.4 80.8,187.9 
	80.9,173.7 81.1,167.1 81.3,170.4 81.5,172.9 81.6,178.7 81.8,162.9 82,175.4 82.2,172.1 82.3,154.6 82.5,144.6 82.7,158.8 
	82.9,169.6 83,159.6 83.2,161.3 83.4,157.1 83.6,162.1 83.7,156.3 83.9,152.1 84.1,148 84.3,151.3 84.4,144.6 84.6,143.8 
	84.8,159.6 85,187 85.2,189.5 85.3,182.9 85.5,180.4 85.7,176.2 85.9,177.1 86,176.2 86.2,180.4 86.4,169.6 86.6,168.7 86.7,165.4 
	86.9,172.9 87.1,165.4 87.3,167.1 87.4,167.1 87.6,179.6 87.8,173.7 88,174.6 88.1,167.1 88.3,173.7 88.5,168.7 88.7,169.6 
	88.8,166.3 89,179.6 89.2,168.7 89.4,164.6 89.5,167.9 89.7,172.9 89.9,180.4 90.1,190.4 90.3,187 90.4,184.5 90.6,181.2 90.8,182 
	91,177.1 91.1,177.1 91.3,169.6 91.5,171.2 91.7,172.9 91.8,181.2 92,172.1 92.2,176.2 92.4,170.4 92.5,173.7 92.7,166.3 
	92.9,170.4 93.1,171.2 93.2,177.9 93.4,172.1 93.6,170.4 93.8,167.1 93.9,177.1 94.1,167.1 94.3,168.7 94.5,167.9 94.6,181.2 
	94.8,162.9 95,170.4 95.2,167.9 95.3,172.9 95.5,182 95.7,187.9 95.9,174.6 96.1,187 96.2,193.7 96.4,193.7 96.6,187.9 96.8,181.2 
	96.9,182 97.1,178.7 97.3,180.4 97.5,179.6 97.6,167.9 97.8,172.9 98,169.6 98.2,177.9 98.3,169.6 98.5,171.2 98.7,168.7 
	98.9,182.9 99,174.6 99.2,178.7 99.4,169.6 99.6,175.4 99.7,174.6 99.9,170.4 100.1,168.7 100.3,185.4 100.4,167.9 100.6,167.9 
	100.8,170.4 101,183.7 101.2,187 101.3,192.8 101.5,188.7 101.7,188.7 101.9,192 102,184.5 102.2,182 102.4,177.1 102.6,174.6 
	102.7,174.6 102.9,181.2 103.1,188.7 103.3,176.2 103.4,172.1 103.6,169.6 103.8,175.4 104,171.2 104.1,177.1 104.3,173.7 
	104.5,187.9 104.7,173.7 104.8,172.9 105,175.4 105.2,177.1 105.4,172.9 105.5,167.9 105.7,168.7 105.9,184.5 106.1,167.9 
	106.3,176.2 106.4,170.4 106.6,172.9 106.8,199.5 107,195.3 107.1,177.1 107.3,177.9 107.5,186.2 107.7,175.4 107.8,179.6 
	108,173.7 108.2,182 108.4,180.4 108.5,179.6 108.7,177.9 108.9,184.5 109.1,179.6 109.2,184.5 109.4,177.9 109.6,176.2 
	109.8,179.6 109.9,184.5 110.1,184.5 110.3,191.2 110.5,186.2 110.6,185.4 110.8,183.7 111,191.2 111.2,181.2 111.4,189.5 
	111.5,179.6 111.7,188.7 111.9,192 112.1,177.9 112.2,179.6 112.4,194.5 112.6,185.4 112.8,187.9 112.9,180.4 113.1,195.3 
	113.3,186.2 113.5,180.4 113.6,182 113.8,180.4 114,183.7 114.2,186.2 114.3,182 114.5,184.5 114.7,185.4 114.9,182.9 115,181.2 
	115.2,179.6 115.4,182 115.6,182 115.7,182 115.9,189.5 116.1,189.5 116.3,191.2 116.5,186.2 116.6,182.9 116.8,188.7 117,190.4 
	117,188.8 "/>
<g>
	<linearGradient id="SVGID_1_" gradientUnits="userSpaceOnUse" x1="125.5" y1="138" x2="191.0305" y2="138">
		<stop  offset="0" style="stop-color:#7C3EB9"/>
		<stop  offset="0.3363" style="stop-color:#A2299C"/>
		<stop  offset="1" style="stop-color:#EB0066"/>
	</linearGradient>
	<rect x="126.5" y="130" class="st2" width="16" height="16"/>
	<linearGradient id="SVGID_2_" gradientUnits="userSpaceOnUse" x1="125.5" y1="138" x2="191.0305" y2="138">
		<stop  offset="0" style="stop-color:#7C3EB9"/>
		<stop  offset="0.3363" style="stop-color:#A2299C"/>
		<stop  offset="1" style="stop-color:#EB0066"/>
	</linearGradient>
	<rect x="150.5" y="130" class="st3" width="16" height="16"/>
	<linearGradient id="SVGID_3_" gradientUnits="userSpaceOnUse" x1="125.5" y1="138" x2="191.0305" y2="138">
		<stop  offset="0" style="stop-color:#7C3EB9"/>
		<stop  offset="0.3363" style="stop-color:#A2299C"/>
		<stop  offset="1" style="stop-color:#EB0066"/>
	</linearGradient>
	<rect x="174.5" y="130" class="st4" width="16" height="16"/>
</g>
</svg>
