<?xml version="1.0" encoding="utf-8"?>
<!-- Generator: Adobe Illustrator 22.1.0, SVG Export Plug-In . SVG Version: 6.00 Build 0)  -->
<svg version="1.1" id="Calque_1" xmlns="http://www.w3.org/2000/svg" xmlns:xlink="http://www.w3.org/1999/xlink" x="0px" y="0px"
	 viewBox="0 0 826.9 980" style="enable-background:new 0 0 826.9 980;" xml:space="preserve">
<style type="text/css">
	.st0{fill:#FFFFFF;stroke:#BCBCBC;stroke-width:17;stroke-miterlimit:10;}
	.st1{fill:#666666;}
</style>
<rect x="152" y="159.8" class="st0" width="522.9" height="660.4"/>
<g>
	<g transform="translate(0.000000,512.000000) scale(0.100000,-0.100000)">
		<path class="st1" d="M0,4817.5v-265.3c0-21.8,14.8-40.9,35.9-46.3l46.4-11.9c109.1-28.7,181.8-90,225.9-185.7
			c45.9-99.5,45.9-191.4,0-290.9c-44-95.7-116.8-156.9-225.9-185.7l-46.4-11.9c-21.1-5.4-35.9-24.5-35.9-46.3v-273v-267.7
			c0-23.4,16.9-43.3,39.9-47.1l40.5-6.7c114.8-19.1,237.3-147.4,256.5-269.9c26.8-181.8-80.4-348.4-250.7-390.5l-49.7-12.2
			c-21.4-5.2-36.4-24.4-36.4-46.4v-268.8v-268.3c0-21.3,14.1-40.1,34.7-46l45.7-13.1c45.9-11.5,105.3-38.3,134-57.4
			c63.2-45.9,130.2-181.8,130.2-268c-1.9-153.1-130.2-313.9-269.9-335l-35.3-6.3c-22.8-4.1-39.3-23.9-39.3-47V882.2v-273
			c0-21.8,14.8-40.9,35.9-46.3L82.5,551c44-13.4,107.2-42.1,135.9-65.1c67-53.6,126.3-176.1,126.3-266c0-90-59.3-212.5-126.3-266.1
			c-28.7-22.9-91.9-51.7-135.9-65.1l-46.4-11.9C15-128.6,0.2-147.7,0.2-169.5v-273v-267.7c0-23.4,16.9-43.3,39.9-47.1l40.5-6.7
			c114.8-19.1,237.3-147.4,256.5-269.9c26.8-181.8-80.4-348.4-250.7-390.5l-49.6-12.1c-21.4-5.2-36.5-24.4-36.5-46.4v-268.8v-268.6
			c0-22.1,15.2-41.4,36.7-46.5l51.4-12.2c170.3-44,275.6-208.6,248.8-390.5c-19.1-122.5-141.6-250.7-256.5-269.9l-40.5-6.7
			c-23-3.8-39.9-23.8-39.9-47.1v-267.7v-273c0-21.8,14.8-40.9,35.9-46.3l46.4-11.9c109.1-28.7,181.8-90,225.9-185.7
			c45.9-99.5,45.9-191.4,0-290.9c-44-95.7-116.8-157-225.9-185.7l-46.4-11.9c-21.1-5.4-35.9-24.5-35.9-46.3v-265.3v-254.2
			c0-26.4,21.4-47.8,47.8-47.8h254.3h265.3c21.8,0,40.9,14.8,46.3,35.9l11.9,46.4c28.7,109.1,90,181.8,185.7,225.9
			c99.5,45.9,191.4,45.9,290.9,0c95.7-44,156.9-116.8,185.7-225.9l11.9-46.4c5.4-21.1,24.5-35.9,46.3-35.9h246.2h244.7
			c22.5,0,42,15.7,46.7,37.8l3.4,15.8c63.2,275.6,373.2,384.7,568.5,199.1c68.9-65.1,109.1-139.7,109.1-204.8l0,0
			c0-26.4,21.4-47.8,47.8-47.8h247h252.9c23.1,0,43,16.6,47,39.3l6.3,35.3c21.1,139.7,181.8,268,335,269.9
			c151.2,0,304.3-128.2,336.9-283.3l5.2-23.7c4.8-21.9,24.2-37.6,46.7-37.6h244.5h244.8c22.5,0,41.9,15.6,46.7,37.6l5.2,23.7
			c32.6,155,185.7,283.3,336.9,283.3c153.1-1.9,313.9-132.1,336.9-275.6l4.8-29c3.8-23,23.8-39.9,47.1-39.9h252.4h247
			c26.4,0,47.8,21.4,47.8,47.8l0,0c0,68.9,44,147.4,122.5,216.3c193.3,170.4,491.9,55.5,555.1-210.6l3.4-15.8
			c4.7-22,24.2-37.8,46.7-37.8h244.7h246.2c21.8,0,40.9,14.8,46.3,35.9l11.9,46.4c28.7,109.1,90,181.8,185.7,225.9
			c99.5,45.9,191.4,45.9,290.9,0c95.7-44,157-116.8,185.7-225.9l11.9-46.4c5.4-21.1,24.5-35.9,46.3-35.9h265H8221
			c26.4,0,47.8,21.4,47.8,47.8v254.6v265.3c0,21.8-14.8,40.9-35.9,46.3l-46.4,11.9c-109.1,28.7-181.8,90-225.9,185.7
			c-46,99.5-46,191.4,0,290.9c44,95.7,116.7,157,225.9,185.7l46.4,11.9c21.1,5.4,35.9,24.5,35.9,46.3v273v268
			c0,23.2-16.7,43.1-39.6,47.1l-37,6.5c-141.6,22.9-267.9,178-267.9,329.2c0,91.9,65.1,225.9,130.1,273.7
			c28.7,19.1,88.1,45.9,134,57.4l45.7,13c20.5,5.9,34.7,24.6,34.7,46v268.2v267.6c0,21.6-14.5,40.6-35.4,46.2l-43.1,11.5
			c-109.1,30.6-181.8,88-227.8,181.8c-44,91.9-49.8,195.2-11.5,283.3c36.3,90,151.2,183.8,241.2,197.1l37,6.5
			c22.9,4,39.6,23.9,39.6,47.1v268v273c0,21.8-14.8,40.9-35.9,46.3l-46.4,11.9c-44,13.4-107.2,42.1-135.9,65.1
			c-67,53.6-126.3,176.1-126.3,266.1s59.3,212.5,126.3,266c28.7,23,91.9,51.7,135.9,65.1l46.4,11.9c21.1,5.4,35.9,24.5,35.9,46.3
			v273v268c0,23.2-16.7,43.1-39.6,47.1l-37,6.5c-141.6,23-267.9,178-267.9,329.2c0,91.9,65.1,225.9,130.1,273.7
			c28.7,19.1,88.1,45.9,134,57.4l45.7,13.1c20.5,5.9,34.7,24.6,34.7,46v268.3v267.7c0,21.6-14.5,40.5-35.4,46.2l-43.1,11.6
			c-109.1,30.6-181.8,88-227.8,181.8c-44,91.9-49.8,195.2-11.5,283.3c36.3,90,151.2,183.8,241.2,197.2l37,6.5
			c22.9,4,39.6,23.9,39.6,47.1v268v273c0,21.8-14.8,40.9-35.9,46.3l-46.4,11.9c-109.1,28.7-181.8,90-225.9,185.7
			c-46,99.5-46,191.4,0,290.9c44,95.7,116.7,156.9,225.9,185.7l46.4,11.9c21.1,5.4,35.9,24.5,35.9,46.3v265.3v254.4
			c0,26.4-21.4,47.8-47.8,47.8h-254.6h-265.3c-21.8,0-40.9-14.8-46.3-35.9l-11.9-46.4c-28.7-109.1-90-181.8-185.7-225.9
			c-99.5-45.9-191.4-45.9-290.9,0c-95.7,44-157,116.8-185.7,225.9l-11.9,46.4c-5.4,21.1-24.5,35.9-46.3,35.9h-246.2h-245
			c-22.4,0-41.8-15.6-46.7-37.4l-3.2-14.3c-63.2-268-361.8-382.8-555.1-212.5c-78.5,68.9-122.5,147.4-122.5,216.3v0.1
			c0,26.4-21.4,47.8-47.8,47.8h-247h-252.4c-23.4,0-43.3-16.9-47.1-39.9l-4.8-29c-23-143.5-183.8-273.7-336.9-275.6
			c-151.2,0-304.3,128.2-336.9,283.3l-5.2,23.7c-4.8,21.9-24.2,37.6-46.7,37.6h-244.5h-244.8c-22.5,0-41.9-15.6-46.7-37.6l-5.2-23.7
			c-32.5-155-185.7-283.3-336.9-283.3c-153.1,1.9-313.9,132.1-336.9,275.6l-4.8,29c-3.8,23-23.8,39.9-47.1,39.9h-252.4h-247
			c-26.4,0-47.8-21.4-47.8-47.8v-3.9c0-70.8-57.4-160.8-145.5-227.8c-59.3-45.9-88.1-55.5-189.5-55.5c-93.8,0-132.1,9.6-187.6,47.9
			c-70.8,47.9-134,143.6-155,235.4l-3.2,14.3c-4.9,21.9-24.3,37.4-46.7,37.4h-245h-246.2c-21.8,0-40.9-14.8-46.3-35.9l-11.9-46.4
			c-28.7-109.1-90-181.8-185.7-225.9c-99.5-45.9-191.4-45.9-290.9,0c-95.7,44-156.9,116.8-185.7,225.9l-11.9,46.4
			c-5.4,21.1-24.5,35.9-46.3,35.9h-265H47.8c-26.4,0-47.8-21.4-47.8-47.8V4817.5z M6995.9,3847l33.2-31.8c9.4-9,14.7-21.5,14.7-34.5
			V219.9v-3560.8c0-13-5.3-25.5-14.7-34.5l-33.2-31.8l-31.8-33.2c-9-9.4-21.5-14.7-34.5-14.7H4134.4H1339.2
			c-13,0-25.5,5.3-34.5,14.7l-31.8,33.2l-33.2,31.8c-9.4,9-14.7,21.5-14.7,34.5V219.9v3560.8c0,13,5.3,25.5,14.7,34.5l33.2,31.8
			l31.8,33.2c9,9.4,21.5,14.7,34.5,14.7h2795.2h2795.2c13,0,25.5-5.3,34.5-14.7L6995.9,3847z"/>
	</g>
</g>
<polygon class="st1" points="627,470.9 625.1,470.9 623.2,469 621.3,469 617.5,469 615.6,469 613.7,469 611.8,467.1 607.9,465.2 
	606,469 604.1,469 600.3,469 598.4,465.2 596.5,465.2 594.6,461.4 590.8,463.3 588.9,463.3 587,461.4 585.1,461.4 581.3,457.6 
	579.3,455.7 577.4,455.7 573.6,451.9 571.7,448.1 569.8,446.1 567.9,442.3 564.1,436.6 562.2,444.2 560.3,438.5 558.4,434.7 
	554.6,425.2 552.6,446.1 550.7,463.3 546.9,453.8 545,461.4 543.1,459.5 541.2,459.5 537.4,459.5 535.5,457.6 533.6,455.7 
	529.8,455.7 527.9,459.5 526,465.2 524,463.3 520.2,463.3 518.3,455.7 516.4,461.4 514.5,461.4 510.7,450 508.8,440.4 506.9,438.5 
	503.1,434.7 501.2,432.8 499.3,430.9 497.3,429 493.5,444.2 491.6,444.2 489.7,444.2 487.8,440.4 484,440.4 482.1,438.5 
	480.2,432.8 476.4,432.8 474.5,427.1 472.6,425.2 470.6,446.1 466.8,480.5 464.9,480.5 463,474.7 461.1,470.9 457.3,465.2 
	455.4,455.7 453.5,448.1 449.7,442.3 447.8,442.3 445.9,440.4 444,438.5 440.1,451.9 438.2,430.9 436.3,440.4 432.5,444.2 
	430.6,446.1 428.7,444.2 426.8,440.4 423,446.1 421.1,440.4 419.2,440.4 417.3,444.2 413.4,444.2 411.5,442.3 409.6,440.4 
	405.8,459.5 403.9,457.6 402,455.7 400.1,436.6 396.3,432.8 394.4,434.7 392.5,440.4 390.6,440.4 386.7,434.7 384.8,463.3 
	382.9,465.2 379.1,463.3 377.2,461.4 375.3,455.7 373.4,444.2 369.6,438.5 367.7,429 365.8,429 363.9,429 360,423.3 358.1,427.1 
	356.2,427.1 352.4,432.8 350.5,436.6 348.6,436.6 346.7,432.8 342.9,429 341,434.7 339.1,440.4 335.3,436.6 333.3,432.8 331.4,429 
	329.5,427.1 325.7,427.1 323.8,429 321.9,432.8 320,432.8 316.2,429 314.3,421.4 312.4,423.3 308.6,415.6 306.7,411.8 304.7,408 
	302.8,404.2 299,400.4 297.1,463.3 295.2,482.4 293.3,482.4 289.5,482.4 287.6,482.4 285.7,482.4 281.9,482.4 280,480.5 278,480.5 
	276.1,474.7 272.3,474.7 270.4,474.7 268.5,472.8 266.6,472.8 262.8,470.9 260.9,470.9 259,470.9 255.2,470.9 253.3,470.9 
	251.3,469 249.4,469 245.6,465.2 243.7,465.2 241.8,461.4 238,461.4 236.1,457.6 234.2,457.6 232.3,455.7 228.5,450 226.6,455.7 
	224.7,444.2 222.7,453.8 218.9,461.4 217,459.5 215.1,455.7 211.3,450 209.4,448.1 207.5,451.9 205.6,469 201.8,470.9 199.9,470.9 
	198,470.9 196,470.9 196,490 196,509.1 198,509.1 199.9,509.1 201.8,509.1 205.6,511 207.5,528.1 209.4,532 211.3,530.1 
	215.1,524.3 217,520.5 218.9,518.6 222.7,526.2 224.7,535.8 226.6,524.3 228.5,530.1 232.3,524.3 234.2,522.4 236.1,522.4 
	238,518.6 241.8,518.6 243.7,514.8 245.6,514.8 249.4,511 251.3,511 253.3,509.1 255.2,509.1 259,509.1 260.9,509.1 262.8,509.1 
	266.6,507.2 268.5,507.2 270.4,505.3 272.3,505.3 276.1,505.3 278,499.5 280,499.5 281.9,497.6 285.7,497.6 287.6,497.6 
	289.5,497.6 293.3,497.6 295.2,497.6 297.1,516.7 299,579.6 302.8,575.8 304.7,572 306.7,568.2 308.6,564.4 312.4,556.7 
	314.3,558.7 316.2,551 320,547.2 321.9,547.2 323.8,551 325.7,552.9 329.5,552.9 331.4,551 333.3,547.2 335.3,543.4 339.1,539.6 
	341,545.3 342.9,551 346.7,547.2 348.6,543.4 350.5,543.4 352.4,547.2 356.2,552.9 358.1,552.9 360,556.7 363.9,551 365.8,551 
	367.7,551 369.6,541.5 373.4,535.8 375.3,524.3 377.2,518.6 379.1,516.7 382.9,514.8 384.8,516.7 386.7,545.3 390.6,539.6 
	392.5,539.6 394.4,545.3 396.3,547.2 400.1,543.4 402,524.3 403.9,522.4 405.8,520.5 409.6,539.6 411.5,537.7 413.4,535.8 
	417.3,535.8 419.2,539.6 421.1,539.6 423,533.9 426.8,539.6 428.7,535.8 430.6,533.9 432.5,535.8 436.3,539.6 438.2,549.1 
	440.1,528.1 444,541.5 445.9,539.6 447.8,537.7 449.7,537.7 453.5,532 455.4,524.3 457.3,514.8 461.1,509.1 463,505.3 464.9,499.5 
	466.8,499.5 470.6,533.9 472.6,554.8 474.5,552.9 476.4,547.2 480.2,547.2 482.1,541.5 484,539.6 487.8,539.6 489.7,535.8 
	491.6,535.8 493.5,535.8 497.3,551 499.3,549.1 501.2,547.2 503.1,545.3 506.9,541.5 508.8,539.6 510.7,530.1 514.5,518.6 
	516.4,518.6 518.3,524.3 520.2,516.7 524,516.7 526,514.8 527.9,520.5 529.8,524.3 533.6,524.3 535.5,522.4 537.4,520.5 
	541.2,520.5 543.1,520.5 545,518.6 546.9,526.2 550.7,516.7 552.6,533.9 554.6,554.8 558.4,545.3 560.3,541.5 562.2,535.8 
	564.1,543.4 567.9,537.7 569.8,533.9 571.7,532 573.6,528.1 577.4,524.3 579.3,524.3 581.3,522.4 585.1,518.6 587,518.6 
	588.9,516.7 590.8,516.7 594.6,518.6 596.5,514.8 598.4,514.8 600.3,511 604.1,511 606,511 607.9,514.8 611.8,512.9 613.7,511 
	615.6,511 617.5,511 621.3,511 623.2,511 625.1,509.1 627,509.1 630.8,507.2 630.8,490 630.8,472.8 "/>
</svg>
