<?xml version="1.0" encoding="utf-8"?>
<!-- Generator: Adobe Illustrator 21.1.0, SVG Export Plug-In . SVG Version: 6.00 Build 0)  -->
<svg version="1.0" id="Calque_1" xmlns="http://www.w3.org/2000/svg" xmlns:xlink="http://www.w3.org/1999/xlink" x="0px" y="0px"
	 viewBox="0 0 24 24" enable-background="new 0 0 24 24" xml:space="preserve">
<path d="M20,12c0,4.4-3.6,8-8,8c-4.4,0-8-3.6-8-8c0-4.4,3.6-8,8-8c0.8,0,1.5,0.1,2.2,0.3l1.6-1.6C14.6,2.3,13.3,2,12,2
	C6.5,2,2,6.5,2,12c0,5.5,4.5,10,10,10c5.5,0,10-4.5,10-10H20z M7.9,10.1l-1.4,1.4L11,16L21,6l-1.4-1.4L11,13.2L7.9,10.1z"/>
</svg>
