<?xml version="1.0" encoding="utf-8"?>
<!-- Generator: Adobe Illustrator 21.1.0, SVG Export Plug-In . SVG Version: 6.00 Build 0)  -->
<svg version="1.1" id="Calque_1" xmlns="http://www.w3.org/2000/svg" xmlns:xlink="http://www.w3.org/1999/xlink" x="0px" y="0px"
	 viewBox="0 0 24 24" style="enable-background:new 0 0 24 24;" xml:space="preserve">
<path d="M7.5,7.5c1.6-1.6,3.8-2.8,5.9-3.3C18,3,21,6,19.8,10.6c-0.5,2.1-1.7,4.2-3.3,5.9c-1.6,1.6-3.8,2.8-5.9,3.3
	C6,21,3,18,4.2,13.4C4.7,11.3,5.9,9.2,7.5,7.5z M10.6,11.3l-0.4,0.4l2.1,2.1l0.4-0.4L10.6,11.3z M11.6,10.3l-0.4,0.4l2.1,2.1
	l0.4-0.4L11.6,10.3z M9.6,12.3l-0.4,0.4l2.1,2.1l0.4-0.4L9.6,12.3z M12.6,9.3l-0.4,0.4l2.1,2.1l0.4-0.4L12.6,9.3z M8.6,13.3
	l-0.4,0.4l2.1,2.1l0.4-0.4L8.6,13.3z M13.6,8.3l-0.4,0.4l2.1,2.1l0.4-0.4L13.6,8.3z"/>
</svg>
