<?xml version="1.0" encoding="utf-8"?>
<!-- Generator: Adobe Illustrator 22.1.0, SVG Export Plug-In . SVG Version: 6.00 Build 0)  -->
<svg version="1.1" id="Calque_1" xmlns="http://www.w3.org/2000/svg" xmlns:xlink="http://www.w3.org/1999/xlink" x="0px" y="0px"
	 viewBox="0 0 256 256" style="enable-background:new 0 0 256 256;" xml:space="preserve">
<path d="M191.7,163.7c4.3-10.5,6.7-22.3,6.7-34.7c0-44.7-31-80.9-69.3-80.9c-38.3,0-69.3,36.2-69.3,80.9c0,44.7,31,80.9,69.3,80.9
	c17.8,0,34.7,0,46.2-9v26.9c-11.6,5.2-29.4,5.2-46.2,5.2c-51.1,0-92.4-46.6-92.4-104c0-57.4,41.4-104,92.4-104
	c51.1,0,92.4,46.6,92.4,104c0,21.4-5.7,41.3-15.6,57.8h-53.8v-17.3c-7.3,10.7-17.6,17.3-28.9,17.3c-22.3,0-40.4-25.9-40.4-57.8
	c0-31.9,18.1-57.8,40.4-57.8c11.3,0,21.5,6.6,28.9,17.3v-5.8h23.1v80.9H191.7z M129,94.3c-12.8,0-23.1,15.5-23.1,34.7
	s10.3,34.7,23.1,34.7s23.1-15.5,23.1-34.7S141.8,94.3,129,94.3z"/>
</svg>
