<?xml version="1.0" encoding="utf-8"?>
<!-- Generator: Adobe Illustrator 22.1.0, SVG Export Plug-In . SVG Version: 6.00 Build 0)  -->
<svg version="1.1" id="Calque_1" xmlns="http://www.w3.org/2000/svg" xmlns:xlink="http://www.w3.org/1999/xlink" x="0px" y="0px"
	 viewBox="0 0 256 256" style="enable-background:new 0 0 256 256;" xml:space="preserve">
<path d="M160.7,226v-76.2h32.7v-32.7h-32.7V95.3c0-6,4.9-10.9,10.9-10.9h21.8V51.8h-27.2c-21,0-38.1,17.1-38.1,38.1v27.2h-21.8v32.7
	H128V226l-76.2,0c-12,0-21.8-9.7-21.8-21.8V51.8c0-12,9.8-21.8,21.8-21.8h152.4c12,0,21.8,9.8,21.8,21.8v152.4
	c0,12-9.7,21.8-21.8,21.8L160.7,226z"/>
</svg>
