<?xml version="1.0" encoding="utf-8"?>
<!-- Generator: Adobe Illustrator 22.1.0, SVG Export Plug-In . SVG Version: 6.00 Build 0)  -->
<svg version="1.1" id="Calque_1" xmlns="http://www.w3.org/2000/svg" xmlns:xlink="http://www.w3.org/1999/xlink" x="0px" y="0px"
	 viewBox="0 0 256 256" style="enable-background:new 0 0 256 256;" xml:space="preserve">
<style type="text/css">
	.st0{fill:#060605;}
</style>
<path class="st0" d="M129,25C71.6,25,25,71.6,25,129s46.6,104,104,104c57.4,0,104-46.6,104-104S186.4,25,129,25z M139.4,201.8h-20.8
	V181h20.8V201.8z M160.9,121.2l-9.3,9.5c-7.5,7.5-12.2,13.8-12.2,29.4h-20.8V155c0-11.5,4.7-21.9,12.2-29.4l12.9-13.1
	c3.8-3.8,6.1-9,6.1-14.7c0-11.5-9.3-20.8-20.8-20.8s-20.8,9.3-20.8,20.8H87.4c0-23,18.6-41.6,41.6-41.6c23,0,41.6,18.6,41.6,41.6
	C170.6,107,166.9,115.2,160.9,121.2z"/>
</svg>
