<?xml version="1.0" encoding="utf-8"?>
<!-- Generator: Adobe Illustrator 22.1.0, SVG Export Plug-In . SVG Version: 6.00 Build 0)  -->
<svg version="1.1" id="Calque_1" xmlns="http://www.w3.org/2000/svg" xmlns:xlink="http://www.w3.org/1999/xlink" x="0px" y="0px"
	 viewBox="0 0 256 256" style="enable-background:new 0 0 256 256;" xml:space="preserve">
<style type="text/css">
	.st0{fill:#0D0E0E;}
</style>
<path class="st0" d="M86.8,30h82.3c31.4,0,56.8,25.4,56.8,56.8v82.3c0,31.4-25.4,56.8-56.8,56.8H86.8C55.4,226,30,200.6,30,169.2
	V86.8C30,55.4,55.4,30,86.8,30z M84.9,49.6c-19.5,0-35.3,15.8-35.3,35.3v86.2c0,19.5,15.8,35.3,35.3,35.3h86.2
	c19.5,0,35.3-15.8,35.3-35.3V84.9c0-19.5-15.8-35.3-35.3-35.3H84.9z M179.5,64.3c6.8,0,12.3,5.5,12.3,12.3c0,6.8-5.5,12.3-12.3,12.3
	c-6.8,0-12.3-5.5-12.3-12.3C167.2,69.8,172.7,64.3,179.5,64.3z M128,79c27.1,0,49,21.9,49,49c0,27.1-21.9,49-49,49
	c-27.1,0-49-21.9-49-49C79,100.9,100.9,79,128,79z M128,98.6c-16.2,0-29.4,13.2-29.4,29.4c0,16.2,13.2,29.4,29.4,29.4
	s29.4-13.2,29.4-29.4C157.4,111.8,144.2,98.6,128,98.6z"/>
</svg>
