<?xml version="1.0" encoding="utf-8"?>
<!-- Generator: Adobe Illustrator 22.1.0, SVG Export Plug-In . SVG Version: 6.00 Build 0)  -->
<svg version="1.1" id="Calque_1" xmlns="http://www.w3.org/2000/svg" xmlns:xlink="http://www.w3.org/1999/xlink" x="0px" y="0px"
	 viewBox="0 0 256 256" style="enable-background:new 0 0 256 256;" xml:space="preserve">
<path d="M128,168.4c11.6,0,21-9.5,21-21c0-11.6-9.5-21-21-21s-21,9.5-21,21C107,158.9,116.4,168.4,128,168.4z M191.1,73.7
	c11.6,0,21,9.5,21,21V200c0,11.6-9.5,21-21,21H64.9c-11.6,0-21-9.5-21-21V94.7c0-11.6,9.5-21,21-21h10.5v-21C75.4,23.2,98.5,0,128,0
	s52.6,23.2,52.6,52.6v21H191.1z M128,21c-17.9,0-31.6,13.7-31.6,31.6v21h63.1v-21C159.6,34.7,145.9,21,128,21z"/>
</svg>
