<?xml version="1.0" encoding="utf-8"?>
<!-- Generator: Adobe Illustrator 22.1.0, SVG Export Plug-In . SVG Version: 6.00 Build 0)  -->
<svg version="1.1" id="Calque_1" xmlns="http://www.w3.org/2000/svg" xmlns:xlink="http://www.w3.org/1999/xlink" x="0px" y="0px"
	 viewBox="0 0 512 512" style="enable-background:new 0 0 512 512;" xml:space="preserve">
<g>
	<path d="M27.3,84.6v342.9H389l95.4-106.7V84.6H27.3z M444.3,305.7h-72.8v81.6H67.5l0-263.7h376.8V305.7z"/>
	<polygon points="115.4,261.9 117,261.1 118.6,263.4 120.2,273.8 121.8,276.8 123.4,275.3 125,272.3 126.6,269.4 128.2,267.9 
		129.8,273.1 131.4,279.1 133,272.3 134.6,275.3 136.2,271.6 137.8,270.1 139.4,270.8 141,268.6 142.6,268.6 144.2,265.6 
		145.8,264.9 147.4,263.4 149,262.6 150.6,261.9 152.2,261.9 153.8,261.1 155.4,261.9 157,261.9 158.6,260.4 160.2,260.4 
		161.8,259.6 163.4,258.9 165,259.6 166.6,255.9 168.2,255.1 169.8,254.4 171.4,254.4 173,254.4 174.6,253.6 176.2,254.4 
		177.8,253.6 179.4,267.1 181,308.3 182.6,305.3 184.2,303 185.8,300.8 187.4,298.5 189,293.3 190.6,294.1 192.2,288.8 193.8,286.6 
		195.4,286.6 197,289.6 198.6,290.3 200.2,291.1 201.8,289.6 203.4,286.6 205,284.3 206.6,282.1 208.2,285.1 209.8,289.6 
		211.4,287.3 213,284.3 214.6,284.3 216.2,287.3 217.8,291.1 219.4,291.1 221,292.6 222.6,289.6 224.2,288.8 225.8,288.8 
		227.4,283.6 229,279.8 230.6,271.6 232.2,268.6 233.9,266.4 235.5,265.6 237.1,266.4 238.7,285.8 240.3,282.1 241.9,281.3 
		243.5,285.1 245.1,286.6 246.7,284.3 248.3,272.3 249.9,270.8 251.5,269.4 253.1,281.3 254.7,280.6 256.3,279.1 257.9,279.8 
		259.5,282.1 261.1,281.3 262.7,277.6 264.3,281.3 265.9,279.8 267.5,278.3 269.1,279.1 270.7,281.3 272.3,288.1 273.9,274.6 
		275.5,283.6 277.1,282.1 278.7,280.6 280.3,280.6 281.9,276.8 283.5,272.3 285.1,264.9 286.7,261.9 288.3,259.6 289.9,255.1 
		291.5,255.9 293.1,278.3 294.7,291.8 296.3,291.1 297.9,287.3 299.5,286.6 301.1,283.6 302.7,282.1 304.3,282.1 305.9,279.1 
		307.5,279.1 309.1,279.8 310.7,289.6 312.3,288.1 313.9,286.6 315.5,285.1 317.1,283.6 318.7,282.1 320.3,275.3 321.9,267.9 
		323.5,267.9 325.1,272.3 326.7,267.1 328.3,267.1 329.9,264.9 331.5,269.4 333.1,271.6 334.7,272.3 336.3,270.8 337.9,269.4 
		339.5,269.4 341.1,269.4 342.7,267.9 344.3,273.1 345.9,267.1 347.5,277.6 349.1,291.8 350.7,285.1 352.3,283.6 353.9,279.1 
		355.5,284.3 357.1,280.6 358.7,277.6 360.3,276.8 361.9,273.8 363.5,271.6 365.2,271.6 366.8,270.8 368.4,268.6 370,268.6 
		371.6,266.4 373.2,267.1 374.8,267.9 376.4,265.6 378,264.9 379.6,263.4 381.2,263.4 382.8,263.4 384.4,264.9 386,264.1 
		387.6,262.6 389.2,263.4 390.8,262.6 392.4,262.6 394,262.6 395.6,261.9 397.2,261.1 398.8,260.4 398.8,249.1 398.8,237.9 
		397.2,237.2 395.6,236.4 394,235.7 392.4,235.7 390.8,235.7 389.2,234.9 387.6,235.7 386,234.2 384.4,233.4 382.8,234.9 
		381.2,234.9 379.6,234.9 378,233.4 376.4,232.7 374.8,230.4 373.2,231.2 371.6,231.9 370,229.7 368.4,229.7 366.8,227.4 
		365.2,226.7 363.5,226.7 361.9,224.4 360.3,221.4 358.7,220.7 357.1,217.7 355.5,214 353.9,219.2 352.3,214.7 350.7,213.2 
		349.1,206.5 347.5,220.7 345.9,231.2 344.3,225.2 342.7,230.4 341.1,228.9 339.5,228.9 337.9,228.9 336.3,227.4 334.7,225.9 
		333.1,226.7 331.5,228.9 329.9,233.4 328.3,231.2 326.7,231.2 325.1,225.9 323.5,230.4 321.9,230.4 320.3,222.9 318.7,216.2 
		317.1,214.7 315.5,213.2 313.9,211.7 312.3,210.2 310.7,208.7 309.1,218.5 307.5,219.2 305.9,219.2 304.3,216.2 302.7,216.2 
		301.1,214.7 299.5,211.7 297.9,211 296.3,207.2 294.7,206.5 293.1,220 291.5,242.4 289.9,243.2 288.3,238.7 286.7,236.4 
		285.1,233.4 283.5,225.9 281.9,221.4 280.3,217.7 278.7,217.7 277.1,216.2 275.5,214.7 273.9,223.7 272.3,210.2 270.7,217 
		269.1,219.2 267.5,220 265.9,218.5 264.3,217 262.7,220.7 261.1,217 259.5,216.2 257.9,218.5 256.3,219.2 254.7,217.7 253.1,217 
		251.5,228.9 249.9,227.4 248.3,225.9 246.7,214 245.1,211.7 243.5,213.2 241.9,217 240.3,216.2 238.7,212.5 237.1,231.9 
		235.5,232.7 233.9,231.9 232.2,229.7 230.6,226.7 229,218.5 227.4,214.7 225.8,209.5 224.2,209.5 222.6,208.7 221,205.7 
		219.4,207.2 217.8,207.2 216.2,211 214.6,214 213,214 211.4,211 209.8,208.7 208.2,213.2 206.6,216.2 205,214 203.4,211.7 
		201.8,208.7 200.2,207.2 198.6,208 197,208.7 195.4,211.7 193.8,211.7 192.2,209.5 190.6,204.2 189,205 187.4,199.7 185.8,197.5 
		184.2,195.3 182.6,193 181,190 179.4,231.2 177.8,244.7 176.2,243.9 174.6,244.7 173,243.9 171.4,243.9 169.8,243.9 168.2,243.2 
		166.6,242.4 165,238.7 163.4,239.4 161.8,238.7 160.2,237.9 158.6,237.9 157,236.4 155.4,236.4 153.8,237.2 152.2,236.4 
		150.6,236.4 149,235.7 147.4,234.9 145.8,233.4 144.2,232.7 142.6,229.7 141,229.7 139.4,227.4 137.8,228.2 136.2,226.7 
		134.6,222.9 133,225.9 131.4,219.2 129.8,225.2 128.2,230.4 126.6,228.9 125,225.9 123.4,222.9 121.8,221.4 120.2,224.4 
		118.6,234.9 117,237.2 115.4,236.4 113.8,236.4 113,236.8 113,249.1 113,261.5 113.8,261.9 	"/>
</g>
</svg>
