<?xml version="1.0" encoding="utf-8"?>
<!-- Generator: Adobe Illustrator 22.1.0, SVG Export Plug-In . SVG Version: 6.00 Build 0)  -->
<svg version="1.1" id="Calque_1" xmlns="http://www.w3.org/2000/svg" xmlns:xlink="http://www.w3.org/1999/xlink" x="0px" y="0px"
	 viewBox="0 0 256 256" style="enable-background:new 0 0 256 256;" xml:space="preserve">
<g>
	<path d="M174.6,58.7c-16.5,0-32.1,6.2-43.4,15.5c9.3,9.3,16.5,19.6,19.6,32.1h-6.2c-4.1-11.4-10.3-20.7-18.6-29
		c-8.3,8.3-14.5,17.6-18.6,29h-4.1c4.1-12.4,10.3-23.8,19.6-32.1C110.5,63.9,96,58.7,79.5,58.7c-38.3,0-69.3,31-69.3,69.3
		s31,69.3,69.3,69.3c16.5,0,32.1-6.2,43.4-15.5c-9.3-9.3-15.5-19.6-19.6-32.1h6.2c4.1,11.4,10.3,20.7,18.6,29
		c8.3-8.3,14.5-17.6,18.6-29h6.2c-4.1,12.4-10.3,23.8-19.6,32.1c12.4,9.3,26.9,15.5,43.4,15.5c38.3,0,69.3-31,69.3-69.3
		C245,89.7,213.9,58.7,174.6,58.7z M41.2,144.5l4.1-21.7l-9.3,21.7h-7.2l-2.1-22.8l-4.1,22.8h-7.2l6.2-31H33l1,18.6l8.3-18.6h11.4
		l-6.2,31C47.4,144.5,41.2,144.5,41.2,144.5z M66,144.5l-1-2.1c-1,1-2.1,1-6.2,1c-3.1,0-8.3-2.1-7.2-8.3c2.1-10.3,14.5-9.3,16.5-9.3
		c1-4.1-2.1-3.1-4.1-3.1c-2.1,0-7.2,1-8.3,1l1-5.2c4.1-1,7.2-1,9.3-1c11.4,0,10.3,8.3,10.3,12.4l-3.1,14.5
		C73.3,144.5,66,144.5,66,144.5z M94,137.3c-1,7.2-9.3,7.2-11.4,7.2s-5.2,0-8.3-1l1-5.2c4.1,1,8.3,0,9.3,0c2.1,0,3.1-3.1,1-4.1
		c-1-1-3.1-2.1-5.2-3.1s-3.1-3.1-2.1-7.2c1-6.2,9.3-6.2,10.3-6.2c1,0,3.1,0,7.2,1l-2.1,5.2c-2.1-1-5.2-1-7.2,0c-3.1,1-1,3.1,0,4.1
		c1,1,4.1,2.1,5.2,3.1C92.9,131.1,95,133.2,94,137.3z M106.4,143.5c-1,1-3.1,1-5.2,1s-7.2-1-5.2-8.3l5.2-24.8h7.2l-2.1,7.2h4.1
		l-1,5.2h-5.2l-2.1,10.3c0,2.1,0,4.1,4.1,3.1V143.5z M121.9,138.3c3.1,0,7.2,0,8.3-1l-1,5.2c-2.1,1-6.2,1-9.3,1
		c-12.4,0-12.4-11.4-11.4-13.4c0-2.1,2.1-12.4,13.4-12.4c12.4,0,10.3,10.3,9.3,14.5h-15.5C114.7,138.3,118.8,138.3,121.9,138.3z
		 M140.5,133.2l-2.1,11.4h-7.2l5.2-25.9h6.2l1,2.1c1-1,3.1-2.1,6.2-2.1l-2.1,7.2C145.7,125.9,142.6,124.9,140.5,133.2z M166.4,136.3
		l2.1,6.2c-2.1,1-5.2,2.1-8.3,2.1c-7.2,0-15.5-6.2-11.4-19.6c3.1-9.3,11.4-13.4,15.5-13.4c6.2,0,8.3,2.1,9.3,4.1l-4.1,4.1
		c-2.1-1-3.1-1-5.2-1s-7.2,2.1-8.3,8.3C154,135.2,159.1,139.4,166.4,136.3z M183.9,144.5l-1-1c-1,1-2.1,1-6.2,1
		c-3.1,0-8.3-2.1-7.2-8.3c2.1-10.3,14.5-9.3,16.5-9.3c1-4.1-2.1-3.1-4.1-3.1s-7.2,1-8.3,1l1-5.2c4.1-1,7.2-1,9.3-1
		c11.4,0,10.3,8.3,10.3,12.4l-3.1,14.5h-7.2V144.5z M202.6,132.1l-2.1,11.4h-7.2l5.2-25.9h6.2l1,2.1c1-1,3.1-2.1,7.2-2.1l-3.1,7.2
		C208.8,124.9,204.6,124.9,202.6,132.1z M225.3,144.5l-1-2.1c-1,1-4.1,2.1-6.2,2.1c-5.2,0-9.3-7.2-7.2-14.5
		c3.1-11.4,9.3-11.4,13.4-11.4c3.1,0,4.1,2.1,5.2,3.1l2.1-10.3h7.2l-6.2,33.1H225.3z"/>
	<path d="M121.9,123.9c-3.1,0-5.2,1-5.2,5.2h8.3C125,125.9,124,123.9,121.9,123.9z"/>
	<path d="M60.9,133.2c-2.1,1-3.1,4.1-1,5.2c2.1,1,5.2-1,6.2-3.1l1-3.1C65,133.2,62.9,132.1,60.9,133.2z"/>
	<path d="M218.1,131.1c-1,4.1,1,6.2,3.1,6.2c3.1,0,4.1-2.1,5.2-5.2c1-2.1,0-5.2,0-6.2C224.3,122.8,219.1,124.9,218.1,131.1z"/>
	<path d="M179.8,133.2c-2.1,1-3.1,4.1-1,5.2c2.1,1,5.2-1,6.2-3.1l1-3.1C183.9,133.2,181.9,132.1,179.8,133.2z"/>
</g>
</svg>
