<?xml version="1.0" encoding="utf-8"?>
<!-- Generator: Adobe Illustrator 22.1.0, SVG Export Plug-In . SVG Version: 6.00 Build 0)  -->
<svg version="1.1" id="Calque_1" xmlns="http://www.w3.org/2000/svg" xmlns:xlink="http://www.w3.org/1999/xlink" x="0px" y="0px"
	 viewBox="0 0 256 256" style="enable-background:new 0 0 256 256;" xml:space="preserve">
<path d="M101.9,24.5c42.8,0,77.4,34.7,77.4,77.4c0,19.2-7,36.8-18.6,50.4l3.2,3.2h9.4l59.6,59.6L215.1,233l-59.6-59.6V164l-3.2-3.2
	c-13.5,11.6-31.1,18.6-50.4,18.6c-42.8,0-77.4-34.7-77.4-77.4C24.5,59.2,59.2,24.5,101.9,24.5z M101.9,48.3
	c-29.6,0-53.6,24-53.6,53.6c0,29.6,24,53.6,53.6,53.6c29.6,0,53.6-24,53.6-53.6C155.6,72.3,131.6,48.3,101.9,48.3z"/>
</svg>
