<?xml version="1.0" encoding="utf-8"?>
<!-- Generator: Adobe Illustrator 22.1.0, SVG Export Plug-In . SVG Version: 6.00 Build 0)  -->
<svg version="1.1" id="Calque_1" xmlns="http://www.w3.org/2000/svg" xmlns:xlink="http://www.w3.org/1999/xlink" x="0px" y="0px"
	 viewBox="0 0 256 256" style="enable-background:new 0 0 256 256;" xml:space="preserve">
<path d="M233,62.9c-7.7,3.4-16,5.7-24.7,6.8c8.9-5.3,15.7-13.8,18.9-23.8c-8.3,4.9-17.5,8.5-27.4,10.5c-7.9-8.4-19.1-13.6-31.4-13.6
	c-23.8,0-43.1,19.3-43.1,43.1c0,3.4,0.4,6.7,1.1,9.8c-35.8-1.8-67.6-18.9-88.8-45c-3.7,6.4-5.8,13.8-5.8,21.7
	c0,14.9,7.6,28.1,19.2,35.9c-7.1-0.2-13.7-2.2-19.5-5.4c0,0.2,0,0.4,0,0.5c0,20.9,14.9,38.3,34.6,42.2c-3.6,1-7.4,1.5-11.4,1.5
	c-2.8,0-5.5-0.3-8.1-0.8c5.5,17.1,21.4,29.6,40.2,29.9c-14.7,11.6-33.3,18.4-53.5,18.4c-3.5,0-6.9-0.2-10.3-0.6
	c19.1,12.2,41.7,19.4,66,19.4c79.2,0,122.6-65.7,122.6-122.6c0-1.9,0-3.7-0.1-5.6C219.9,79.1,227.2,71.5,233,62.9z"/>
</svg>
