<?xml version="1.0" encoding="utf-8"?>
<!-- Generator: Adobe Illustrator 22.1.0, SVG Export Plug-In . SVG Version: 6.00 Build 0)  -->
<svg version="1.1" id="Calque_1" xmlns="http://www.w3.org/2000/svg" xmlns:xlink="http://www.w3.org/1999/xlink" x="0px" y="0px"
	 viewBox="0 0 256 256" style="enable-background:new 0 0 256 256;" xml:space="preserve">
<g>
	<path d="M193.5,115.9c-2.4,6.7-4.8,13.3-7.3,20.1c4,0,7.7,0,11.7,0c-1.4-6.8-2.8-13.4-4.2-20.1
		C193.7,115.9,193.6,115.9,193.5,115.9z"/>
	<path d="M225.3,52H30.7c-10.1,0-18.4,8.3-18.4,18.4v115.2c0,10.1,8.3,18.4,18.4,18.4h194.7c10.1,0,18.4-8.3,18.4-18.4V70.4
		C243.7,60.3,235.5,52,225.3,52z M83.4,155.2c-4.3,0-8.7,0-13,0c-0.7,0-0.9-0.2-1.1-0.8c-3.6-14.1-7.3-28.2-10.9-42.4
		c-0.6-2.5-1.9-4.3-4.3-5.4c-4-1.8-8.1-3-12.4-4c-0.2,0-0.4-0.1-0.5-0.2c0-0.1,0-0.3,0-0.4c0.1-1.1,0.8-1.2,1.7-1.2
		c7.4,0,14.7,0,22.1,0c3.7,0,6.2,2,6.9,5.6c1.9,9.9,3.8,19.9,5.6,29.9c0.1,0.3,0.2,0.7,0.4,1.1c4.8-12.2,9.6-24.4,14.5-36.5
		c4.9,0,9.7,0,14.7,0c-0.3,0.7-0.5,1.3-0.7,1.8c-7.2,17.2-14.4,34.3-21.6,51.5C84.5,155,84.1,155.2,83.4,155.2z M114.2,155.2
		c-3.8-0.1-7.7,0-11.5,0c-0.4,0-0.7,0-1.2,0c3.9-18.2,7.8-36.2,11.6-54.2c4.7,0,9.3,0,14,0c-0.4,1.8-0.7,3.5-1.1,5.2
		c-3.4,15.9-6.8,31.8-10.2,47.7C115.7,154.9,115.3,155.2,114.2,155.2z M146.4,155.7c-6.8,0.9-13.5,0.2-20-2
		c-0.4-0.1-0.7-0.3-1.2-0.5c0.8-3.9,1.7-7.8,2.5-11.8c0.5,0.2,1,0.4,1.5,0.6c4,1.9,8.3,2.8,12.7,2.8c2,0,4-0.3,5.9-1.3
		c3.4-1.8,3.8-5.2,0.8-7.6c-1.4-1.1-3.1-2-4.8-2.9c-2.7-1.4-5.5-2.9-7.8-4.9c-6.8-5.7-5.9-13.7-2.3-19.1c3-4.4,7.5-6.8,12.6-8
		c1.6-0.4,3.3-0.6,4.9-0.8c0.2,0,0.5-0.1,0.7-0.2c1.8,0,3.6,0,5.4,0c1.6,0.3,3.2,0.5,4.7,0.8c1.5,0.3,3,0.8,4.6,1.2
		c0.4,0.1,0.7,0.3,1.1,0.4c-0.8,3.8-1.6,7.6-2.4,11.3c-1.8-0.6-3.6-1.2-5.4-1.7c-3.3-0.8-6.6-1.1-9.9-0.3c-1.2,0.3-2.4,1-3.3,1.8
		c-1.6,1.4-1.6,3.4-0.1,4.8c1,1,2.3,1.8,3.5,2.5c2.5,1.5,5,2.7,7.5,4.2c3.3,2,6,4.6,7.1,8.5c1.6,5.6-0.1,13.1-6.4,17.6
		C154.8,153.8,150.7,155.1,146.4,155.7z M202,155.2c-0.4-1.9-0.8-3.9-1.2-5.8c-0.5-2.3-0.4-2.3-2.8-2.3c-4.9,0-9.9,0-14.8,0
		c-0.7,0-1,0.2-1.2,0.9c-0.7,2.2-1.5,4.4-2.4,6.5c-0.1,0.3-0.5,0.7-0.8,0.7c-4.7,0-9.3,0-14.1,0c0.1-0.3,0.2-0.6,0.3-0.9
		c6.9-16.4,13.7-32.8,20.6-49.2c1.2-2.8,3.3-4.2,6.3-4.2c3.9,0,7.7,0,11.7,0c3.8,18,7.5,36.1,11.3,54.2
		C210.5,155.2,206.3,155.2,202,155.2z"/>
</g>
</svg>
